<svg id="Layer_1" data-name="Layer 1" xmlns="http://www.w3.org/2000/svg" viewBox="0 0 552.33 552.33">
  <defs>
    <style>
      .cls-1 {
        fill: #423426;
      }
    </style>
  </defs>
  <title>handlebars</title>
  <path class="cls-1" d="M166,303.08c17.48-17.63,40.52-30.6,65.52-32.89,12.65-1.34,25.4.12,37.76,2.88-5.32-22.58-4.57-47,5.26-68.31,11.84-26,33.74-47,59.62-58.92,22.55-10.48,47.51-14.42,72.17-16,19.29-1.2,38.67-.78,57.93-2.63,10.08-1,20.28-2.8,29.46-7.3,12.19-6,20-19.66,19.51-33.17-.54-12.57-12.24-23.53-24.86-22.89-7.85.58-14.33,8.53-12.46,16.36,1.23,6.46,7.49,9.79,13.26,11.47-9.39,1.47-20.36,1.38-27.55-5.85-9.46-7.22-10.63-20.75-6.14-31.08,8.67-20.23,31.78-33.37,53.63-29.77,20.65,3.1,37,18,49.58,33.69A70.46,70.46,0,0,1,571.94,113c-4.48,26.81-20.84,50.1-40,68.73-18.63,17.65-40.68,31.5-64.25,41.53-39.4,16.8-81.31,27.49-119.35,47.48a141.89,141.89,0,0,0-36.54,23.77c-8.24,8.14-16.4,15.53-23.61,23.79a145.52,145.52,0,0,0-21.36,34c-20.33,38.69-31,81.39-48.33,121.34-14.77,33.59-37.19,64.75-68.07,85.19-17.27,11.45-37.9,19.39-58.9,17.77-17.91-1.32-34.76-10.21-47-23.21-12.36-11.44-22.39-26.69-23.79-43.83-1.46-16.1,5.87-32.34,18.17-42.68,7.63-6.95,18.19-11.15,28.56-9.79,8.18,1.1,14.76,7.25,18.64,14.23,3,6.77,2.91,14.48,1.6,21.65-1.49-5.81-5-11.94-11.37-13.2C68.2,477.78,59.94,485,60,493.28c.15,10.24,7.56,19.78,17.31,22.75,10.33,3,21.73-.8,29.86-7.38C119.26,498.49,122,482,123.49,467.1c2.35-31.43.92-63.27,7.35-94.31,5.09-25.81,16.29-51,35.16-69.71Z" transform="translate(-20.64 -24.43)"/>
</svg>
