<svg id="Layer_1" data-name="Layer 1" xmlns="http://www.w3.org/2000/svg" viewBox="0 0 1766.69 2493.68">
  <defs>
    <style>
      .cls-1 {
        fill: #e44d26;
      }

      .cls-2 {
        fill: #f16529;
      }

      .cls-3 {
        fill: #ebebeb;
      }

      .cls-4 {
        fill: #fff;
      }
    </style>
  </defs>
  <title>html-5</title>
  <path class="cls-1" d="M1769.77,490.07l-161,1803.05L885.35,2493.68,163.86,2293.39,3.08,490.07Z" transform="translate(-3.08)"/>
  <path class="cls-2" d="M886.43,2340.37,1471,2178.3,1608.57,637.51H886.43Z" transform="translate(-3.08)"/>
  <path class="cls-3" d="M573.55,1079.86H886.43V858.69H331.84L337.13,918l54.36,609.48H886.43V1306.34H593.76Zm49.84,558.24h-222l31,347.27,453.06,125.77,1-.28V1880.75l-1,.25-246.32-66.51L623.39,1638.1Z" transform="translate(-3.08)"/>
  <path d="M167.45,0h112.4V111.05H382.67V0h112.4V336.27H382.67V223.67H279.85v112.6H167.46V0ZM642.87,111.52H543.93V0H854.28V111.52h-99V336.27H642.89V111.52h0ZM903.53,0h117.2l72.09,118.16L1164.84,0h117.24V336.27H1170.15V169.6l-77.33,119.56h-1.94L1013.5,169.6V336.27h-110ZM1338,0h112.43V225.12h158.06V336.27H1338V0Z" transform="translate(-3.08)"/>
  <path class="cls-4" d="M885.66,1527.51H1158l-25.68,286.85-246.67,66.57V2111l453.41-125.66,3.33-37.36,52-582.28,5.39-59.39H885.66v221.17Zm0-448.19v.54H1419.9l4.43-49.71L1434.41,918l5.29-59.34h-554v220.64Z" transform="translate(-3.08)"/>
</svg>
