<svg id="Layer_1" data-name="Layer 1" xmlns="http://www.w3.org/2000/svg" viewBox="0 0 2498.1 2452.19">
  <defs>
    <style>
      .cls-1 {
        fill: #00546b;
      }
    </style>
  </defs>
  <title>mysql</title>
  <path class="cls-1" d="M2301.25,1896.6c-135.92-3.39-241.26,10.21-329.61,47.58-25.49,10.19-66.27,10.2-69.67,42.48,13.6,13.59,15.3,35.68,27.19,54.37,20.41,34,56.06,79.85,88.35,103.65,35.67,27.18,71.37,54.35,108.73,78.14,66.27,40.78,141,64.56,205.6,105.34,37.39,23.77,74.74,54.38,112.12,79.86,18.7,13.57,30.58,35.68,54.38,44.17v-5.09c-11.9-15.3-15.3-37.38-27.19-54.38-17-17-34-32.28-51-49.27-49.27-66.25-110.43-124-176.69-171.59-54.37-37.39-173.31-88.35-195.39-151.23,0,0-1.71-1.68-3.4-3.38,37.37-3.4,81.54-17,117.23-27.19,57.77-15.3,110.43-11.9,169.91-27.19,27.17-6.8,54.36-15.29,81.54-23.79V1923.8c-30.57-30.59-52.66-71.36-84.94-100.25-86.65-74.77-181.81-147.82-280.34-209-52.68-34-120.65-56.07-176.71-85-20.37-10.21-54.37-15.29-66.25-32.29-30.6-37.37-47.59-86.64-69.67-130.82-49.26-93.45-96.85-197.09-139.33-295.62-30.56-66.27-49.26-132.54-86.64-193.69C1334.5,588.36,1144.21,413.36,852,241.75c-62.87-35.68-137.62-51-217.48-69.65-42.46-1.71-85-5.1-127.42-6.81-27.19-11.89-54.38-44.17-78.16-59.46C332.09,44.66,82.31-87.85,11,87.15c-45.88,110.43,68,219.16,107,275.24,28.9,39.07,66.27,83.24,86.66,127.42,11.89,28.87,15.28,59.48,27.18,90.05,27.19,74.74,52.66,158,88.36,227.68,18.69,35.67,39.07,73.05,62.86,105.33,13.59,18.68,37.37,27.19,42.48,57.76-23.78,34-25.49,85-39.09,127.44-61.17,192-37.37,429.85,49.27,570.87,27.18,42.46,91.75,135.93,178.4,100.24,76.47-30.58,59.47-127.42,81.54-212.37,5.12-20.41,1.72-34,11.91-47.58v3.41c23.79,47.56,47.57,93.44,69.66,141,52.67,83.24,144.41,169.9,220.87,227.68,40.79,30.56,73.06,83.24,124,101.93v-5.11h-3.41c-10.19-15.29-25.49-22.08-39.07-34-30.58-30.57-64.57-68-88.35-101.93C920,1747.08,857.07,1641.75,801,1533c-27.18-52.66-51-110.43-73.06-163.1-10.21-20.41-10.21-51-27.19-61.16-25.49,37.37-62.86,69.66-81.55,115.53-32.27,73-35.67,163.1-47.57,256.54-6.8,1.72-3.41,0-6.81,3.42-54.35-13.61-73-69.67-93.44-117.25-51-120.62-59.48-314.31-15.29-453.63,11.9-35.68,62.87-147.81,42.48-181.8-10.19-32.28-44.19-51-62.87-76.45-22.08-32.29-45.88-73.05-61.16-108.74-40.78-95.15-61.17-200.49-105.34-295.64-20.39-44.18-56.06-90-84.95-130.82C152,274,116.3,241.75,90.81,187.38c-8.49-18.68-20.39-49.26-6.8-69.66C87.41,104.13,94.2,99,107.8,95.64c22.09-18.7,85,5.09,107,15.29,62.88,25.47,115.54,49.28,168.22,84.95,23.78,17,49.26,49.28,79.84,57.77h35.68c54.38,11.89,115.53,3.4,166.51,18.68,90.06,28.88,171.6,71.36,244.67,117.24,222.57,141,406,341.5,530.09,581.06,20.39,39.07,28.88,74.77,47.57,115.53,35.7,83.26,79.87,168.22,115.53,249.77,35.68,79.84,69.66,161.4,120.63,227.67,25.49,35.67,127.43,54.37,173.31,73.06,34,15.28,86.66,28.89,117.23,47.57,57.77,35.66,115.53,76.46,169.9,115.53,27.19,20.39,112.13,62.87,117.24,96.84Z" transform="translate(-0.24 0)"/>
  <path class="cls-1" d="M568.22,420.14a269.21,269.21,0,0,0-69.65,8.5V432H502c13.61,27.19,37.38,45.88,54.36,69.66,13.6,27.18,25.49,54.37,39.09,81.56,1.69-1.71,3.39-3.4,3.39-3.4,23.8-17,35.68-44.18,35.68-85C624.3,483,622.6,471.12,614.1,459.23c-10.18-17-32.28-25.49-45.88-39.09Z" transform="translate(-0.24 0)"/>
</svg>
