<svg id="Layer_1" data-name="Layer 1" xmlns="http://www.w3.org/2000/svg" viewBox="0 0 587.52 443.64">
  <defs>
    <style>
      .cls-1 {
        fill: #cd6799;
      }
    </style>
  </defs>
  <title>sass</title>
  <path class="cls-1" d="M512.38,332a121,121,0,0,0-53.23,12.43c-5.47-10.92-10.94-20.64-11.91-27.77-1.07-8.32-2.36-13.4-1.07-23.34s7.08-24.1,7-25.18-1.28-6.16-13.09-6.27-22,2.27-23.18,5.41a130.65,130.65,0,0,0-4.93,17.61c-2,10.8-23.61,49.38-35.95,69.58-4-7.88-7.41-14.8-8.16-20.31-1.07-8.32-2.36-13.4-1.07-23.34s7.08-24.09,7-25.17-1.28-6.16-13.09-6.27-22,2.27-23.18,5.4-2.47,10.48-4.93,17.61S301.4,374,293.89,390.59c-3.86,8.54-7.19,15.35-9.55,20h0a5.07,5.07,0,0,1-.43.87c-2,4-3.22,6.16-3.22,6.16v.1c-1.61,2.92-3.32,5.62-4.18,5.62-.65,0-1.83-7.78.21-18.37,4.3-22.36,14.49-57.16,14.38-58.34,0-.65,1.93-6.7-6.65-9.84-8.37-3.13-11.38,2.06-12.13,2.06s-1.28,1.83-1.28,1.83,9.33-39.11-17.82-39.11c-16.95,0-40.35,18.69-51.94,35.55-7.3,4-22.86,12.53-39.49,21.72-6.33,3.56-12.88,7.13-19,10.48-.43-.44-.86-1-1.29-1.41-32.84-35.33-93.58-60.29-91-107.72,1-17.29,6.87-62.67,116.65-117.78,90.35-44.84,162.25-32.42,174.7-4.86,17.82,39.33-38.52,112.37-131.89,123-35.62,4-54.3-9.83-59-15-4.93-5.4-5.68-5.73-7.51-4.65-3,1.62-1.07,6.49,0,9.3,2.79,7.34,14.27,20.31,33.7,26.69,17.17,5.61,58.91,8.75,109.46-10.92,56.55-22,100.76-83.31,87.78-134.63-13-52.08-98.84-69.26-180.07-40.19C146,108.36,93.65,135.59,56,171,11.23,213.17,4.15,249.8,7.05,265.15,17.46,319.6,92,355,121.87,381.3c-1.5.87-2.9,1.62-4.08,2.27C102.88,391,46,421,31.84,452.61c-16.1,35.88,2.57,61.59,14.91,65,38.31,10.7,77.7-8.53,98.84-40.3s18.56-73,8.8-91.95a2.29,2.29,0,0,0-.43-.65c3.86-2.27,7.83-4.65,11.69-6.92,7.62-4.53,15.14-8.75,21.57-12.21-3.64,10.05-6.33,22.05-7.61,39.33C178,425.28,186.26,451.64,197.1,462c4.83,4.53,10.51,4.64,14.16,4.64,12.67,0,18.35-10.59,24.68-23.12,7.73-15.34,14.71-33.17,14.71-33.17s-8.7,48.19,14.91,48.19c8.59,0,17.28-11.24,21.14-17v.11s.22-.32.65-1.08l1.39-2.27v-.21c3.44-6.06,11.16-19.78,22.64-42.58,14.81-29.39,29.09-66.12,29.09-66.12a188.15,188.15,0,0,0,5.68,23.88c2.58,8.75,8,18.36,12.24,27.66-3.44,4.86-5.58,7.56-5.58,7.56l.1.11c-2.79,3.67-5.79,7.67-9.12,11.56-11.69,14.05-25.64,30.15-27.58,34.79-2.25,5.51-1.71,9.51,2.58,12.75,3.11,2.38,8.69,2.7,14.38,2.38a65.77,65.77,0,0,0,21.57-5,72.18,72.18,0,0,0,18.56-9.83c11.49-8.54,18.46-20.75,17.82-36.85-.32-8.86-3.22-17.72-6.76-26,1.07-1.51,2-3,3.11-4.54,18.14-26.69,32.19-56,32.19-56a189.13,189.13,0,0,0,5.69,23.88c2.15,7.56,6.55,15.78,10.41,23.77-17.06,13.94-27.58,30.15-31.34,40.74-6.76,19.66-1.5,28.52,8.48,30.58,4.51,1,11-1.19,15.67-3.25a71,71,0,0,0,19.85-10.26c11.49-8.54,22.54-20.42,21.89-36.52a69.42,69.42,0,0,0-4.93-21.61c14.49-6.05,33.16-9.4,57-6.59,51.08,6.05,61.17,38.14,59.24,51.65s-12.67,20.85-16.21,23.12-4.72,3-4.4,4.64c.43,2.38,2.15,2.27,5.15,1.84,4.19-.75,26.83-10.91,27.8-35.76C595.55,366.39,565.5,331.71,512.38,332Zm-394,133.77c-17,18.58-40.56,25.61-50.76,19.66-10.94-6.37-6.65-33.82,14.17-53.48,12.66-12,29-23.13,39.81-29.93,2.47-1.52,6.12-3.68,10.52-6.38.75-.43,1.18-.65,1.18-.65h0l2.57-1.62C143.44,421.5,136.14,446.24,118.33,465.8Zm123.41-84.5c-5.9,14.48-18.24,51.54-25.76,49.49-6.43-1.73-10.41-29.82-1.28-57.59,4.61-13.94,14.38-30.58,20.06-37.06,9.23-10.38,19.43-13.84,21.9-9.62C259.77,332,245.39,372.22,241.74,381.3Zm101.84,49.06c-2.47,1.29-4.83,2.16-5.9,1.51-.75-.43,1.07-2.16,1.07-2.16s12.77-13.83,17.81-20.1c2.9-3.67,6.33-8,10-12.86v1.41C366.54,414.69,350.66,425.82,343.58,430.36Zm78.55-18.05c-1.82-1.3-1.5-5.62,4.62-19.12,2.36-5.3,7.94-14.16,17.49-22.69a30.7,30.7,0,0,1,1.71,9.94C445.85,401.29,431,409.07,422.13,412.31Z" transform="translate(-6.48 -77)"/>
</svg>
