<svg id="Layer_1 svgs" data-name="Layer 1" xmlns="http://www.w3.org/2000/svg" viewBox="0 0 458.39 544.61">
  <defs>
    <style>
      .cls-1 {
        fill: #fff;
      }
    </style>
  </defs>
  <title>jet</title>
  <path class="cls-1" d="M266.06,110.69,249.69,219.61l-16.37,40.85v20.42L81.89,380.31V346.69c0-9.93-2.69-18.16-6.14-18.16s-6.14,8.23-6.14,18.16v97.57H81.89V430.65h167.8v40.84l-81.85,56.73v29.5l10.91,9.08h70.94V560h16.37V519.15h2.73L277,573.61h43.65l8.19-54.46h2.73V560h16.37v6.81h70.94l10.91-9.08v-29.5l-81.85-56.73V430.65h167.8v13.61H528V346.69c0-9.93-2.69-18.16-6.14-18.16s-6.14,8.23-6.14,18.16v33.62L364.29,280.88V260.46l-16.37-40.85L331.55,110.69C309.72,29,304.35,29,298.8,29S287.89,29,266.06,110.69Z" transform="translate(-69.61 -29)"/>
</svg>
