<svg id="Layer_1" data-name="Layer 1" xmlns="http://www.w3.org/2000/svg" viewBox="0 0 1008.18 550.09">
  <defs>
    <style>
      .cls-1 {
        fill: #216e37;
        stroke: #000;
      }

      .cls-1, .cls-2, .cls-3 {
        stroke-miterlimit: 10;
      }

      .cls-2 {
        fill: #C72C27;
        transition: .5s ease;
        opacity: 0;
      }

      .cls-2, .cls-3 {
        stroke: #67170d;
        stroke-width: 0.5px;
      }

      .cls-3 {
        fill: #ee3524;
      }
    </style>
  </defs>
  <title>america</title>
  <path id="US-AL" class="cls-1" d="M682.51,340l.46,2.7.46,2.71.46,2.7.47,2.69.46,2.69.46,2.68.47,2.69.46,2.69.46,2.66.47,2.67.46,2.67.46,2.67.47,2.65.46,2.65.46,2.65.47,2.65.42,1.2.36,1.95,2.46,5.73.72,2.4-.2,1,.31.86.82.7-.15.82-1.11.92-.72,1.11-.52,2h0l-1,3.48,0,2.11,1,2.89h0l.21,1.28-.67,5.64.44,3.61,1.06,2.35-5.63,0H648.22l-.24,1.45.11,1.39.62,1.31,2.52,2.5.24.62L651,432l.08,1.37-.28.71-.61.63-.17.68-.41.19-1.91,2.07-6.69.69.38-.46,1.4-.1,2-.66-.41-1.11-.76-1.23-.71-.13-.46-.72,0-2.26-.44-1.32-1.1-1.35-.37.26-.8,2.32-.66,3-.34,1-2,.07-1.76-.2-.87.05-.22-4.15-.19-3.78-.18-3.8-.19-3.79-.18-3.82-.19-3.82-.18-3.83-.19-3.84.43-3.78.42-3.78.43-3.8.43-3.8.42-3.82.43-3.81.42-3.84.43-3.83.43-3.84.42-3.85.43-3.86.42-3.87.43-3.87.43-3.9.42-3.89.43-3.91.11-1,0-.33,0-.5-1.53-1.39-.3-.28-.22-.26.22,0,2.8,0,2.8,0,2.79,0,2.8,0,2.8,0,2.8,0,2.8,0,2.8,0,2.79,0,2.8,0,2.8,0,2.8,0,2.8,0,2.79,0,2.8,0,2.73-.09Zm-42.7,97.93-1.54.42-2.28,0-.46-.15.91-.3,2.7-.39.67.45Z"/>
  <path id="US-AR" class="cls-1" d="M611.31,318.61l-.07.39.35.85v.48l-.26.3-.59.18-.45.21-.09.37,0,.17,0,.4.07.36-.27.48L608,324l-.86,1.52.3,1.87-.7,1.89L605,331.17l-.72,2.12.26,2.35-.87,1.91-2,1.44-.64.89v.72l.2.52-.67,1-1.66,1-.91,1-.13,1-.39.47-.72.2-.43,1.41-.37,3.33-.89,1.89-1.45.47-.76.74-.11,1-.85,1.16-1.61,1.34-.54,1.26.56,1.2-.11.48-.5.39L588,361l-.29.28-.17.31.35.61.21.91-.26,1.54-.43.65-.41.61L585.52,367l-.41.84.65.57-.06.65-.72.68.2.76.17.52.69.47.22,1.27-.48,1.65.09,1.36.82,1.11.16.48-.79,3.67.05.52h-3.43l-3.13,0h-9.41l-3.13,0H545.07l-3.14,0h-6.26l0-2.81,0-2.82,0-2.82,0-2.81-.89-.49-1.61-.24-.83.17-1-.13-.65.46-.44.1-.35-.12-.21-.4-.74-.3-.91-1,.06-2.26,0-2.28.05-2.26.06-2.28,0-2.28,0-2.28.06-2.29,0-2.28.06-2.3.06-2.3,0-2.3.06-2.29.05-2.3,0-2.32.06-2.31,0-2.3-.39-3-.38-3-.39-3-.39-3-.39-3-.39-3-.39-3-.39-3h77.73l.76,1.71.76,1.09.13.8-.14.81L603.57,314l-1.17.81-.65.87-.87.82-1.37,2.3,2.87-.06,2.87,0,2.87-.05Z"/>
  <path id="US-AZ" class="cls-1" d="M273.93,297v7.71l0,7.65V416.15h-4l-6.17,0-6.17,0-6.15,0h-6.17l-6.18,0-8.26-3-8.28-3-8.27-3-8.26-3-8.28-3-8.27-3-8.28-3-8.27-3,.84-1.17,1.09-3.09.07-.19h0l2.43-.22,1.15-.78.67-1.43.15-1.46L179,382.2l-1.06-1.11-1.69-.72-1-2L175,375l.3-1.82.89-.26.85-.81.8-1.38.61-1.5.39-1.63.07-2.05-.24-2.51,1.58-3.07,1.55-1.91,2.89-2.33.67-.71v-.63l-.59-.81-2.6-1.64L181,350.78,181,349.7l0,0-.33-1-2.78-4.34-.93-2.37V340l.34-7.54-1-2.61-.24-1.49.3-1.81-.07-1.15-.49-1-.11-1.8-.05-2.22-.8-1.43-.15-.63.45-1.54.81-.8,1.34-.55,1.52-.19,1.72.17,1.31.7.88,1.21.85.61.85,0,1.11-1,1-2.13.34-.13,0-9.31,0-8.48h16.33l5.45,0h43.54l5.45,0h16.34Z"/>
  <path id="US-CA" class="cls-1" d="M82.85,184.36V253l4.09,3.65,4.1,3.65,4.08,3.63,4.09,3.63,4.08,3.61,4.09,3.62,4.1,3.59,4.08,3.6,3.2,3,3.21,3,3.2,3,3.21,3,3.2,3,3.21,3,3.21,3,3.2,3,4.43,4.28,4.43,4.26,4.43,4.27,4.43,4.24,4.43,4.24,4.42,4.23,4.43,4.22L177,340.2V342l.92,2.39,2.78,4.31.34,1,0,0,.11,1.07,1.1,1.17,2.59,1.63.59.8v.65l-.67.7-2.89,2.34L180.28,360l-1.57,3.07.24,2.5-.08,2.06-.39,1.63-.59,1.5-.81,1.37-.86.82-.89.26L175,375l.26,3.34,1,2,1.71.72,1,1.09.39,1.49-.15,1.44-.68,1.43-1.15.78-2.43.2h0l-.07.19-2,.22-5,.44-5,.45-5,.44-5,.45-5,.44-5,.45-5,.44-5,.45,0-.13-.11-2.27-.81-.79-1,.5-.48-2.93.26-1.39-.13-1.35-1-3.34-2.59-4.06-5.6-5L118.65,369l-2.24-2.15-1.43-.59-1.78-.17-.52,1-2-.66L111,364l-2-3.34-1.61-.37-4.06.22-5.43-1.83-1.61-1.09-.56-2L93.15,354l-3.35-1.67-1.87.39-2.45-.26L82,351.2l-2-.14-4,.35-1.48-.26-1.37-1.52-1.48-.76L72,347l-.18-1.71L72,344l-.67-2.91.52-2.71-.44-1-.84-.74L68,335.53l-.48-1.39.43-1.93-.69-1.28-2.15-1.18-2-2.71-2.54-1.48-1-2.49-1.57-1.53-.54-1.37-3.48-4.88-3.73-3.82-.57-2.2-.15-3,1.46-1.84.78-1.63-.07-1.48-.22-1.09-1.28-1.91-5-1.13-4-4.71-.24-3.61-1.58-3.71,0-2.41-.24-2.61,1.21-.57,1.07.2-.11,1,.35,1.87,1.26,1.41,1.21.61,1.09,1.37.82.41.85.09-.46-.87-.49-.56-.59-1.81L44.16,281l-1.28-1.28-.65-2.33-.55-.54-.36-.87,1.25-1,1.7-.74,2.28-.2,6.45.33,1.37-.59,1.13.2.83-.07-1.74-.61-1,.2-1.17-.13-2.3.13-.92-.26-1-.74-.67-.07-2.13,1.27-.94-.14-2.25-1.39-1-.21-1.57.8-.19,3.43.48,2.54-.94.26-1.09-1.06-1.69-.63-1.39-.95-2-1.77-1-.65-1.17,1.48,0-.69.58-1.7L31,270.1l1.76,2.29-.54-1.61L30.87,269l-1-.61-1.32-3.19-2.95-1.92-2.35-3.12L18.4,255l-.31-4.55-1.76-5.79.74-3.29L17,239l-.88-3.54-.9-1.92-3.91-5.3-3.77-3.58L7,222l-.26-2.74.82-2.44.7-2.58.52-.69.2.28-.15.56.54.16.21-1.13.31-.59-.55-.07.05-.35.33-.73,1.17-3.39L10.73,204,12,198.7,11.92,197l-.8-3.76-.8-2.26L8.9,189.32,9.53,187l-.06-2.24-.3-.37H82.85Zm2.06,175,3.55,1.07,1.91-.52.36.52-.23.44-4.31.82-1.32-.57-.11-.78-.45-.74Zm-7.4,1.14-.92.06-1.43-.22.5-.48.8-.36.26.26.79.74Zm4.6,2.21-1.22.3-.93-.28-1.48-2,3.15-.26,1.35.87.18.24-1,1.13Zm29.57,11.12.89,1.54-1.26-.19-1.33.09-.41-.83-.39-1.17-.26-.29-.91-.12-.07-.11-.11-.55.26-.28,2.85,1.3.74.61Zm-19,3.5-.78,0-1.07-.19-.56-1.11.87-.07.82.14.65.87.07.32Zm19,8.08-1,.18-1.13-.42-1-2-1.07-1.56.57-.44.87,1.5,2.17,2.28.58.46Z"/>
  <path id="US-CO" class="cls-1" d="M396.42,230.39l0,4.26v8.45l0,4.22v4.19l0,4.19,0,4.19v4.17l0,4.15,0,4.15,0,4.13v8.25l0,4.09v4.1l0,4.07H273.93V207.56H396.4l0,2.87v20Z"/>
  <path id="US-CT" class="cls-1" d="M923.62,184.08l0,1.26v1.76l0,1.28,0,1.74V194l0,1.59-.05.95-.1,1.44-.44.56-.22,1.33-1.52-.13-2.52.33-3.34.8-1.85-.46-1.89.83-6.41.24L904,201l-1.72,1.57-2.76,1-7,3.54-.82.7-.91-1.44-.7-1.15,1.41-.91,1.07-.69,1-.63.67-.42-.54-.89-.52-.89.13-2.21.15-2.18.13-2.21.15-2.2.13-2.23.15-2.2.13-2.23.14-2.22,1.47.07,1.46.06,1.47.06,1.48.07,1.46.06,1.47.07,1.46.06,1.46.05,0,.61.76-.07.09-.54,2.1,0,2.07,0,2.1,0,2.07,0,2.1,0,2.07,0,2.1,0,2.07,0Z"/>
  <path id="US-DC" class="cls-1" d="M832.4,255.4l-.39-.57-.86-.47-.35-.16,1.39-1.52.93,1.31,1,1.45-1.56,1.82Z"/>
  <path id="US-DE" class="cls-1" d="M860.47,234.59l-.76.8-.65,1.43-1.5,1.72.11,1.17.26.81-.13,1.73,1,1.66,1.87,2.73.35,4.22,1.43,2.82,2.18,3.3,1.69.92.07,1.23-.76,2-1,.92,1.33-.18.67.46.65,1.67,0,1.06-1.87,0h-9.81l-.16-3.53-.17-3.52-.17-3.54L854.8,251l-.17-3.56-.17-3.56-.16-3.56-.17-3.57,1.32-1.82.55-.56.74-.27,2.17-.1Z"/>
  <path id="US-FL" class="cls-1" d="M754.37,428.23l.81,1.84,1.24,7.47.85,2.59,1.54,7,2.52,6.72,3.58,8.1,5.85,9.77.71,1.39-.76,1.16-.24,1.23-.08,1.83.21,1.78.68,2.19,1.34,3.33-.74-.66L770,479.15l-.22-2.81.27-4-.44.09-.37,1.3-.2,1.51-.49.6-.66-2.34,0-1.05.71-1.23-.21-.44-1.15-.63-.24-1,.15-1-.65-.52-.52,0,.36,2.4.53,1.49.67,3.54,1.09,2.15.63,1.79,7.4,19.09,1.74,2.43.65,1.74.66,3.63.15,4.65-1.2,8.47-.28,5.74-.17-.16-.11-.61-.28-.08-1.05,2.63-1.43,2.37-.46,3.69-.69,1.84-2.05,1.94-1.28,0-3.12,1.46-2.18-.39-2.62.82-1.72-.1-1-1.74.15-.78.39-.77.67-.19,2.31,1.82.43-.76-.71-.91-1.33-.5-1-.56-2-4.15-2-2.85-.35-1.91-3.54-1.17-2.58-1.76L749,518.77l-1-5.59-1.13-.63-.48-.45,1.11-2.07,1.17-1.75-.93.43-.69.65-.87,1.54-.63.24-.57-.24-.67-2.95.19-3.63.94-1.37-1.44,0-1.49.52.23,1.22-.21.67-1.09-.17-.82-.42-1.11-1.26L738,501.06l-3.13-6.66-.61-.94-1-1,.48-.32.89-.18,2-3,1.58-1.81.52-1.26-.09-.54-.71-.78-.91.69-.39-.2-1-1.58-1-.44-.68.35.72,1.29.65.49-.26,1.89-.26.61-.61.54-.94-.3-.49.46-.57-.48-.56-.83-.63-1.37,1.65-7.69,1.54-4.92.17-5.61.11-.83-.13-1.5-2.06-3.27-9.1-8-7-9.47L710,440.89l-4.64.78-.79.72-.36.95.3,1.05-.43.45-1.24-.06-1.66.24-4.38,2.5-1.54-.09-1.4.65-1.06.48-2.74.26-2.32.56-1-.3-.65-1.45v-1.5l.54,1.15.81.89.37-.35.15-.8-.81-1.55-2.63-2-3-2.92.91.09.22-.63-.92-.82.39-.94.64-1-1.26.15-1.13.7,0,.87-.23.69-.61-.1-1.13-.85-5.57-2.37L667.92,435l3.75-.62,2,.47-.24-.72-.48-.47-1.59-.57-2,.22-1.28-.28-1.31.58-1.45.85-1.28.44-5,.62-4.08.66.65-.7.71-.45,2.41-.68.35-1.43-.58-1.37-.63.33-.66,1.08-.82-.78h-.91l-.24,1.72L654,435.05l-.51,1.15-3.4.91-.44-.3,1-1.09-.07-.61-.73.33.17-.68.61-.63.28-.71-.07-1.37.44-1.93-.24-.61-2.52-2.5-.61-1.32-.11-1.39.24-1.44h39.43l5.63,0,.73,1.59,1.39,3.3,0,.78,1.63.11,2.78.19,2.78.18,2.78.19,2.78.18,2.78.19,2.78.18,2.78.19,2.78.18,2.78.19,2.78.18,2.78.19,2.78.18,2.78.19,2.77.19,2.78.18,2.78.19,0,.66.47,1,.11,1.19.2.57.56.35.87.1.89-.67.55-1.47.15-1.64-.33-1.89,0-1.6.45-.92.52-.23.44-.5.37-.11,1,.26,3.61,1.34,3.08.16ZM695,450.1l-1.76.72-1.89-.52,1.17-.09.85.2,2.15-1,1.13-.78,1.32-.3Zm82.35,46.66.28,1.44L776,494.87l-2-5.25L773,485.57l.72,1.09.71,2.28,2.94,7.82ZM744.25,510.9l0,1.13-.87-1.91-.59-2.11.83.68.65,2.21Zm.81,1.91-.63.5-1.26-.37-.68-.67-.3-1.3,1.09,1.37.39.32,1.39.15Zm28.87,25.27-3.46,3.6.39-.91,1.35-1.93.44-.91.91-.57.86-1,.05-1.22,1.24-.86.41-.12-2.19,4Zm-4.46,4.58-.47.09.69-.82.19.06Zm-3.34,1.91h-.33l.17-.28.68-.54.24.2,0,.28Zm-3.74,1.65-.8.44-.83-.33.91-.45,2.7-.48-1,.61Zm-5.08,1.26-.52.38-.24-.13v-.57l-.74-1.26,0-.33,1.7,1.24,0,.33-.26.34Zm-4,1-1.13.18.91-.76.3-1.15.53.89v.54l-.6.3Zm-3.78,1-.44,0,0-.3.76-.35.5,0,0,.39-.76.2Z"/>
  <path id="US-GA" class="cls-1" d="M765.39,401.85l-.89,1.72-2.13,1.07-.65,0-.54.31.32.78.54.56,0,.52-.56.7-1.11.2-.63.82.2.76.37.42-.07.73-1.26.74-.3.72.63.21.49-.21.35.15-.76,1.2-.69.75-.65,1.31-1.5.37.06.43.85.37.71,1-1.34,1.87-.83-.15-.5-.41-.32,1.49.13.77-.31,1.62-.52,1.92-.35.8.07,1.46.22,1.43-2.94-.18-3.62-1.34-1-.26-.37.11-.45.5-.52.23-.44.92-.06,1.6.34,1.89-.15,1.65-.56,1.46-.89.67-.87-.1-.55-.35-.21-.57-.11-1.19-.46-1,0-.66-2.78-.19-2.78-.18-2.78-.19-2.78-.18-2.78-.19-2.78-.19-2.78-.18-2.78-.19-2.77-.18-2.78-.19-2.78-.18-2.78-.19-2.78-.18-2.78-.19-2.78-.18-2.78-.19-1.63-.11-.06-.78-1.39-3.3-.72-1.59-1.06-2.35-.44-3.62.67-5.63-.21-1.28h0l-1-2.89,0-2.11,1-3.48h0l.52-2,.72-1.11,1.11-.93.15-.81L694,396l-.31-.85.2-1-.72-2.41L690.7,386l-.36-2-.42-1.2-.47-2.65-.46-2.65-.46-2.65-.47-2.65-.46-2.67-.46-2.67-.47-2.67-.46-2.67-.46-2.68-.47-2.69-.46-2.69-.46-2.68-.46-2.69-.47-2.71-.46-2.7-.46-2.71,5.67.08,5.67.07,5.67.08,5.67.07,5.28-.07,5.28-.08,5.28-.07,5.28-.08-.11,0-.85,1.43-2.56,2.69-.69,2.05,3.3,2.3,0,0,2,1.85,1.35.72,1.37.23.85.61.5,1.48h0l4,7.32h0l4.16,3.76,1.66,1.85.84,1.78,3.54,2.93,1.2,1.58.06,1.18.42.86.78.5.74,1.07.72,1.63,1.41,1.43,2.12,1.2,1.53,2.76,1,4.28,1,2.49,1.52,1,2.07,3.65.67,2.17,0,1.91,1.06,1.48,3.48,1.6Zm-9.54,21.53-.78,4.93-.33-1.74,0-1.69.59-1Z"/>
  <path id="US-IA" class="cls-1" d="M594.82,172.31l1.06,1.62,1.83,1.44,1,1.35L599,178l1.11,1.36,2,1.42,1.15,1.26.32,1.1-.06,1.68-.43,2.28-.72,1.65-1,1-.74,1.41-.5,1.82-1.56,1.64-2.61,1.54-2.93,1-3.2.56-1.91,1.31-.59,2.06.26,1.7,1.15,1.39.64,1.47.17,1.54-.8,2.55-1.78,3.56-2,2.3-2.15,1-1,1.53.24,2-.19,1.15-.88.41-1.54-1.21-.28-.85-1.24-.85-.19-.54-.94-.48-.87-1.67-4.4,0-4.41,0-4.39,0-4.41,0-4.39,0-4.41,0-4.39,0-4.39,0-4.41,0-4.39,0h-4.41l-4.4,0-4.41,0-4.39,0-4.41,0-4.35,0-1.06-1.7-.57-1.58.35-.76.07-2.56-.2-4.39-.43-2.48-.63-.56-.07-.77.48-1-.15-.66-.78-.36-.24-.83.3-1.35-.19-.82-.66-.29-.26-.47.11-.63-.37-.39-.82-.18-.33-1.52.15-2.87-.3-2-.78-1.21-.4-1.11v-1.06l-.82-1.65-1.65-2.26-1.06-3-.48-3.7-1.16-2.08-.54-.11-.45-2-.46-.87-.09-.66-1.45-1.69-.09-.65.18-.81.95-1.6.85-2.61.19-1.76.7-1.34,0-.72-.13-1-.37-.85-1.15-.62-.13-.27-.11-1,.46-.61.15-.68-.13-.86-.68-1.46-.3-1.5,2.52-.09h22.7l5.67,0h56.72l5.76,0,.13,1.5.34,1.07.7.88,1.08.64.16,1.28-.7,1.87-.24,2.32.22,2.76.54,2.48.83,2.21,1.93,1.61,3,1,1.76,1.56.52,2.13Z"/>
  <path id="US-ID" class="cls-1" d="M239,124.73v3.8l0,3.78v52H154.36l-6.49,0h-13v-5.23l0-5.26v-5.26l0-5.28V141.46l0-.13,1.11-3.63.22-1.78-.28-1,.19-1,.66-.93v-1L136,130.9l-1.33-.74-1.93-.36-1-1.31-.07-2.24,1.44-3.47,3-4.69,1.61-3.31.3-2,1.77-4.52,3.28-7.11,1.26-4.58-.76-2-1.68-1.93-2.58-1.83-1.81-2.15-.49-1.1-.59-1.35-.29-1.7.44-1-.37-1.72L135,79.37l-.5-1.67.11-.6.13-.24,0-4V64.67l0-4.08,0-4.09,0-4.11V48.25l0-4.13,0-4.15,0-4.15V27.44l0-4.2,0-4.21V14.81l0-4.23h17.27V36.52l1.87,2.62L155,40.73l.89,1.72,1.36,1.8.25.65.49,1.93-.36,1.39.73,1.42-.13.69-.54.37-.11.11,0,.15.18.22,1.91,1.35,1.87,1.89,2.37,1.3.76.76,3.14,3.74,1.63,2.39,1.7,1.75.85,2,1.76,1.72.45.89.11.19.24,0,1.09-.41.28.11.54.68.11,1L177,71l.69.24.77.07,2.39-.5h.52l.26.21.11.55,0,.91-.24,1.3-.73,1.28.13,1.18L180.32,79l-.54,1.86-.05,1.78-.67,1,.37,1.23-.26,1.85.24.48.85.85.34,2.28-.15.43-1.52.89-.52.57-.2.84.66,2.39-.65,1.31-.07,1.13.15.3,1.41.61,1.7,1.34.54.29.39,0,.72-.45.8-.91,1.63-.92,1.93-2,.09-.55.15-.3h.26l.61.28,1.2,1.18,1.06.67.18.15.1.33L191,99.12l.59.93.17,1.51.61,1.54.43,1.84,1.57,2.37.86,1.69.94.77.57.89.41,1.08.17.87-.56,1.57.15.65.5.71,1.63,1.63.32.13,1.52-.17.81.26.82.82.81,1.22.54,1.24.15,1.46.83,1.62.11,1.42.52.63,1,.85,1,.52.39,0,.28-.22.09-.8.39-.59,1.24-.85h1.19l4.46.71.3,0,.2-.24.76-1.3.61-.52.95-.16,2.74.33,3.17-.18,1.65.37,2.41-.48,2.78.35.37-.21.07-.27-.24-.49,0-1,.56-1.15.19-1,.57-.56.74-.29.61,0,.6.52.66.87,1.19,2.38.63.85.76.74Z"/>
  <path id="US-IL" class="cls-1" d="M644.33,172.7l0,3.67.28,3,.52,1.35.61,1,.65.63.76,2,.85,3.3.8,2.16.63.89,0,6.21,0,6.93v6.91l0,6.86,0,6.86,0,6.8,0,6.78v6.48l-.82.69-.55,1.19.14,1.27-.22.91-.55.56.27,1.39,1.1,2.22.66,2.21.23,2.16-.21,1.54-.94,1.41-.91,3-.78,1.2-1,.41-.86,1.13-.74,1.85-.79.89-.86-.05-.63.35-.4.72.05.76.5.82-.16.74-.84.69,0,.33.26.2-.09.32-.54.33-.31,1,0,1.69-.29.85-.56,0-.07.46.92,1.91-.54.39-1,1.57-.2,1.73.57,1.89-1.44,1.53-3.49,1.15-1.83,1-.21.89.25,1.35.68,1.82.13,1.26-.44.7-2.49-.48L625.82,293l-3,.06-1.54,1.76-.53,1.33.18,1.08-1.22-1.32-.84-.59-.14,0-.19.17-.07.41,0,.3.11.33-.05.2-.21,0-.89-.5-1.07-1.46-1.28-2.41-.28-1.91.73-1.43v-1.48l-.73-1.57-.35-1.54V283l-1.74-2.26-3.48-3-2.56-1.87-1.65-.7-1.91-1.5L601,271.3l-1.16-1.78-.15-1.22,1-3.28,2.89-7.19.33-.83.1-.32-.13-.31-.28-.3-1.22-.85-2.34-.73-2.17-.39-1.72.86-1.5-1.74-1.3-4.36-3.17-4.59-5.08-4.86-2.94-3.32-.82-1.74-.72-2.63L580,228.2l0-2.91,1-3.5.88-.41.19-1.15-.24-2,1-1.53,2.15-1,2-2.3,1.78-3.56.8-2.55-.17-1.54-.64-1.47-1.15-1.39-.26-1.7.59-2.06,1.91-1.31,3.2-.56,2.93-1,2.61-1.54L600.1,193l.5-1.82.74-1.41,1-1,.72-1.65.43-2.28.06-1.68-.32-1.1-1.15-1.26-2-1.42L599,178l-.26-1.26-1-1.35-1.83-1.44-1.06-1.62,8,.08,7.85.05,7.86.06,7.86.05,7.85.08,7.86.05Z"/>
  <path id="US-IN" class="cls-1" d="M696.94,191.33l-.06,7.56-.07,7.52-.06,7.47,0,7.45-.06,7.41,0,7.35-.08,7.34v7.45l-.28.21-.41,1,.44,1v.8l-.49.61.17.44.82.3.31.7-.18,1.1-1.76,1.09-3.36,1.26-.74.35-.59.17-.28-.07h0l-.45-.24-.61-.51-1.05-.24-1.73.17-.68,1,.35,1.93-.59,1.48-1.52,1-1.1,1.35-.64,1.69-1.06,1-1.43.36-1.16,1.55-.89,2.75-1,1.68-1,.67-1.44-.17-1.82-1-1-1-.28-1.05-.54-.75-.5-.33h-.33l0,.15.15.3-.19.31-1.13.11-.48.43.17.76-.26.52-.65.31-.35.72,0,1.13-.47,1-.87.93-1.29-.32L662.51,276l-1.72-.37-1.76.85-1.3,1.13-.87,1.43-.82.35-1.2-1.1-2.84-1.5-1.48-.31-1.07.35-.74-.17-.26-.4-.21-.17-.2.2,0,1.32-.26.81-.48.36-.37-.28-.26-.89-.61-.3-1,.32-1-.13-.85-.54-.32.06-.24.26.08,1-.19.82-.44.54-.63.13-.84-.28-.35.26-.93-1.91.08-.46.55,0,.3-.85,0-1.69.32-1,.54-.33.09-.32L641,273l0-.33.83-.69.17-.74-.5-.82-.05-.76.4-.72.63-.35.86.05.79-.88.74-1.86.86-1.13,1-.41.78-1.2.91-3,.94-1.41.2-1.54-.22-2.16-.66-2.21-1.1-2.22-.28-1.39.56-.56.22-.91-.15-1.27.56-1.19.82-.69v-6.48l0-6.78,0-6.8,0-6.86,0-6.86v-6.91l0-6.93,0-6.21.11.17.65.59.52.34.39.05.22.52,1,.3,1.8.13,1.65-.21,1.5-.53L660.9,190h9.6l5.28,0h21.16Z"/>
  <path id="US-KS" class="cls-1" d="M525.61,297h-129l0-4.07v-8.19l0-4.12v-4.13l0-4.13,0-4.15,0-4.15v-4.17l0-4.19,0-4.19V243.1l0-4.23v-4.22l0-4.26H512.9l4,2.92,1.05,0,1.25-.46.94.67.65,1.81-.09.91-.82,0-1,1.09-1.22,2.11.3,2,1.83,1.86,1.22,1.87.62,1.89,1.22,1.46,2.7,1.56,0,.85v2.91l0,2.91v11.58l0,2.89v5.75l0,2.87v2.85l0,2.86v5.7l0,2.84Z"/>
  <path id="US-KY" class="cls-1" d="M735,265.22l.41.62.18,3.27-.13.65-.59,1.34,0,.7.5,1.11,1.85,2.56.19,1,.72,1,.63,1.45,2,3.09,3.08,2.56,2.41.69-6.6,5.31-3,1.93L733.8,294l-.24.26-.65,1.7-1.74,1.5-1.1,1.58-2.61,1.32-1.85,1.79L721,303.93l-2.62.61-1.76,1-.13.06-.13.05-.13.06-.13.05-.13.06-.13.06-.13.05-.13.06-6.06-.21-6.05-.2-6.06-.2-6.06-.21-6.06-.2-6.06-.21-6.06-.2-6.06-.2-5.8.11-5.8.11-5.8.11-5.8.11-.52-.67-1.52-.14-2.35-.24h-.1l.69,2.22,0,1.93H615.72l.93-1.89.8-.5.37-.09.87.35.42.13.93-.66.81-2,.47-2.07.13-2.19-.56-1.74-.18-1.08.53-1.33,1.54-1.76,3-.06,4.52,1.65,2.49.48.44-.7-.13-1.26-.68-1.82-.24-1.35.2-.89,1.83-1L637.7,287l1.44-1.52-.57-1.89.2-1.72,1-1.57.53-.39.36-.26.81.28.63-.13.45-.52.18-.82-.07-1,.24-.24.31,0,.86.53,1,.13,1-.31.61.3.26.9.37.28.49-.35.26-.83v-1.32l.21-.2.2.16.26.41.74.17,1.08-.37,1.48.31,2.85,1.52,1.19,1.09.83-.35.86-1.42,1.31-1.13,1.74-.84,1.73.35,1.7,1.56,1.3.32.89-.93.46-1,0-1.13.35-.72.65-.32.24-.54-.15-.76.48-.42,1.13-.11.19-.32-.13-.29,0-.15h.33l.48.33.54.74.28,1,1,1,1.82,1,1.43.17,1.05-.65,1-1.7.89-2.75,1.16-1.55,1.43-.36,1-1,.65-1.68,1.09-1.35,1.54-1,.59-1.49-.35-1.92.69-1,1.72-.17,1,.23.62.51.44.25h0l.28.07.59-.15.72-.37,3.36-1.24,1.76-1.11L697,256l-.31-.7-.82-.3-.16-.46.48-.61,0-.8-.45-1,.41-1,.28-.21,1-.74,1-.09.81.78,1.15.18,1.5-.39,1.38.26,1.26.93,1.18,1.68,1.1,2.45,2,1.48,2.87.54,2.09,1,1.32,1.38,1.09.44,1.28-.74,1.35-.39,1.36.46,1.81,1.17,2.69-.26,3.54-1.67,2.09.08.63,1.83,1.5,1.93,2.39,2,.19-.06ZM615.11,307.81l-1.22,0-.06-.26.08-.59.09-.26.24-.05h.28l.39.55.2.58Z"/>
  <path id="US-LA" class="cls-1" d="M614.52,439.07l-1.19.54L607,437.55l-1.6-1.66-1.4-.36-1.73-.2-1.85,2L599,440.13l2.24,1.5,1.91.72,3.17-.61,1.74-1.33,1.43,0,.68-.27.63-.71L612,440l0,.55-.88.78-1.09.65-.67.78,1.25,1.56,2,.51.74-.22.46-1.74,1.21-1.13,1.63.24-.24.71.22.66.76,1.13-.09,1.63.15.39-1.76.73-1.32.24-1.06.94.56.54-1.08.48-.72-.18-.37.18-.11.57-.56.54.8,1.61,1.65,1.06,1.17,1.32,4.67,1.72,1.13-.06,1.11,1.75.89.59.87.3-.09,1.2-1.54.87-.41,1-.39.59-.68-.74-.71-.54-1.65,1.63-.79.36.39-1.76-.63-.69-1-1.78-1.37-1.09-1-.37-.76-.71-.91-.28-.78.08-1.32-.41-.09-.94-.37-.71-1-.83-4.91-1.58,0,.65.34.48.7.34.85.63v1.89l-.37.79-.14,1.13-.32,1.15-.61.91-1.34.61-.59-.52-1-2.48-1.35-.78-2.15-.09-1.47.56-1.59,2.4-1.28.39L588.67,459l-5-1.89.13-.63.79-.2,1.52.26-.07-.65-1.54-2.13-.28-1,.21-1.16-.5,0-.93,1-3.19-.84-.89-1L577,448l-2.65-.1-1.24-1.66L571,447l-1.09.8-1,1.22.37.63,1,1-.45.48-3.07.72-7.15-.79-2.1-.76-2.81-1.6-3.9-1.29-1.87-.21-1.83.26-5.34.13-1.24.35-1.06.56-.68-.61-.32-1.1.61-.18.69-.63.63-1.26.07-.76-.42-.5,1.17-2,.27-.72-.18-3.41-.52-1.25.07-.72.56-1.87-.09-1.7,1-2.08.7-1.07.8-2.21.19-1.43.33-1.07-.24-1.17.56-.83-.38-1.17-.11-1.54-.68-.59-1.21-2.3,0-1L541,413.13l0-.74-1.2-1.11-.24-.72-.11-3-.34-.87L538,405l-2.4-2.5V381.63h47l3.43,0,.09,1,.83.61.06,1.1-.74,1.57V387l.76.62,0,.64-.83.69-.13.74.59.8.26.92-.06,1.06.78,1.37,1.21.87.79,1,.08.57,0,.54-.16.76-1,1.11-.76.82-.47.29-.24.56-.07,1.19-1.11,1.53-2.26,1.78-1.51,2.26-.74,2.73-.78,1.72-.81.74-.41,1.43v2.11l-.52,1.17-1,.22-.23,1.21.6,2.18-.26.91-.73.72-.07.56,4.17,0h29.31l-.51,2.33-1.23,3.13,0,.82.31,1v.57l.46.86,1,.85.88,1.28.78,2.29.21,1.06.65,1.46.33.28.48.17.54.07Zm5.19,2.19,0,.93-.85-.47-1.26,0,.56-.32.38-.31.21-.34,1.59-1.16-.46.85-.22.85Zm6.91,5.54-.48.63.48-3.06-.69-2.57.73,1.13.24,1.33-.28,2.54Zm-1.08,1.89-.94,1,0-.39.7-1.06.5-.4-.3.81Zm-50.66,4.24-.65.28-2.89-1.72-.18-.74,1.42-.67.87.06,1.38.87.5.24.24.35-.13.56-.56.77Z"/>
  <path id="US-MA" class="cls-1" d="M941,163.72l-.4,1.22.5,1.22.33,1.24.8,1.23.68.11.74-.23.54.06.35.52-.14.63-.86.15L941.93,171l-1.39.43-.69,1.31-1,1.52-2,2.37.88.73,3.11.81,1.39.85,2.11,4.41-.48.45-.19.81,1.88,1.13.59,3.15,1.54,1.08,2.29.67,2.8-1,2.34-1.31-.08-1.08-1.46-2.5-.35-1.19-1.1-.76-.4.65-.71-.83-.07-.48.65-.23.76.1.89.44,2.27,2.74.63,3.58.13,2.28-.25.78-.67-.17-1.28.15-6,1.17-1.34,1-3,1.12-.19-.56.22-1.17-.18-2.37-.61-.11-4.77,3.87-1.83.24-1.54,1.13-.35-.63-.28-2.89,1-2.42-.51,0-1,.87-.59-1-.65-.56-.63-.54,0-.87,0-1.31-.73-.26-.07-1.62-.06-1.05-1.31,0-1.08,0-1.72,0-1.8,0-1.31,0,0-.26-2.1,0-2.09,0-2.09,0-2.1,0-2.09,0-2.08,0-2.09,0-2.09,0-.1.54-.76.07,0-.61-1.46-.05-1.46-.06-1.47,0-1.46-.06-1.46-.05-1.47-.06-1.46-.06-1.47,0-.46-.58.56-2,.55-2,.56-2,.55-2,.56-2,.56-2,.55-2,.56-2,1.7.07,1.73.08,1.72.07,1.7.08,1.73.07,1.7.06,1.73.07,1.72.07,2.48.08,2.48.07,2.49.08,2.48.07,2.48.07,2.49.08,2.48.07,2.48.08,1.52-.65,1.8-1.86,1.09-.4,1.78-1.12.89-.24,2,.13Zm5.17,35.17-4.8,1.13-.75-.73,1.2-.33,1.52-1.74,1-.21,1.57,1Zm9.29,2.55-1.35.37L951,201l2.56-.72.43-.26.33-1.06,0-.53,1,2.27.15.78Z"/>
  <path id="US-MD" class="cls-1" d="M854.13,236.71l.17,3.57.17,3.56.16,3.56.17,3.56.17,3.53.16,3.54.17,3.52.17,3.53h9.8l1.87,0,0,.65-.22,1-.41.39,0-1-.28-.34-.46.43-.3.48-.13,1.91-.31.94-1.15.28-1.17,2.5-1.07,1.41-.39.89-1.63.22-2.63.36-.69,1-1.32-.43-2,.06.38-1.36.6-1.18-1.06-1.19-.63-.15-.65-.48.76-1,.37-1-.22-1.28.32-1-.52.15-.86,1-.51.4-.32-.9-.37.2-.24.61-.54.33-1.13-.85-1.67-1-.92-1.67-.52-1.3.54-2.33,1.14-.41,1.49.39h1.94l-.28-.52-.7.09-2.06-1.9-.66-1.15-1.15-.32-.52,1.11-.58.3.71-2.43.92-.09,1.38-.67-.41-1.41-.87-.61-1.58.78,0-1,.3-1.26h1.18l1,.41.89-2,0-.91-1.47,1.33-.33-2.87,1.45-2.76,1.37-1.2,1.72,0,1.74-.2-1.09-.5-1.13-.28.85-1.09.72-.21.71-1-1.71.15.21-1.82-.84.37-1,.17-.39.78.08,1.28-.3.83-.78.67-1.3.52-.13-.91-.42-.41-.17,2-.33.66-1-1.81-.28.37,0,.52-.24.89-.81.46,0,1.15L843,248l-2.62-1,0,.33,1.48,2.15,1.07.73.13,1.16-.92,1-1.28-.84-.22.06.68,1.42.45,1.25-.45,1.05.08,1.28-.1,1.17-.27,1,.61,4.69.74,1.26.74,1.22.39,1.13-.78.17-1.24-.93-1.09-.7-1.3-2.28-.22-.91-.32-.72.15,1.64.46,1.86,4.08,4.11.76,1.58.57,1.24-.14,1.18-1.06-.83-.91-1.07L840,270.17l-3-.76-1.73-2.82v1.19l-.39,1-1.05-1.22-.67-1-.22-1.13-1.32.07-1.39,1-1.33-.24-.15-1.93.35-1,1.5-2.43,1.41-1.24.63-1.59-.2-2.49.18,1.86,1.54-1.82-1-1.43-.93-1.33-1.39,1.52-1.18-.58-1.93-1.89-3.13-1.33-.44-.67,0-.74.43-1-1-1-2.35-1-1-.83-.22-.19-.1-1-.31-.65-.52-.27-.09-.45.31-.61-.31-.65-1-.7-.33-.62.3-.53-.48-.24-1.26,0-1.25-.5-1.22-1.05-1.46-.19-2.52,1.06-1.43.26-.63.59-.31,1-.62.52-1.39,0-.22,0-1.57-.33-1.12-.63-.2-.26.13-.54-.2-.24-.34,0-.31.32-.34,1-2.72,2.63-1.31-.52-.51,0L793,246.14l-1.15.59-2.24,1.67,0-2.87,0-2.88,0-2.89,0-2.89h64.41Zm9.75,37.54-.46.05.46-.77,1.54-3.71.68-1.28-.66,2.59-1.17,2.4-.39.72Z"/>
  <path id="US-ME" class="cls-1" d="M971.54,54.85l.09.54.8.94,1.15.65.87.22h1l2.8-1.28,3.28-.84,1.79-.78.34-.72.81-.26,1.32.22,2.42,1.82,2.82,2.74,2.24,2.17.08,3.74,0,4,.06,4.17,0,3,0,4.06,0,3.23.06,4.18,0,2.25.32.64-.19.88-.07.44,0,.35.13.45,0,.61-.28.55-.15.65,0,1.06.31.65.52.39h.43l.55.39.72.66,1.1.58,1.13.2.78-.15.94.39.33.93-.18.87-.54.41-.57.31-.1.67.28.7.41.62.44,1.07-.18.93-.41.77-.18.82.35.7.93.93.57.89.91.5.42-.35.36-.47.37-.35.63.21.74.26.79.31-.09.76.48,1.26.39,2.43-.59,1.09.13,1.47,1.61.42.39.45.07.53-3.55,3.73-3-.52-1.63,1-1.71.3-.76,1.67-.94.35-1.28-.09-1.11-.47-.86.22-1.18,3-1-.26-.39,1.07-.5.47-.74.4-.65-1.33L988,125l-.61-.28-.8-.31-.84,0-.55.18-.69.82-1,.7-.76-.57-.59-1-.5,1.5-.72,1.6.13,1.85-.32,1.09-.7-.29-.69-1-1.94-.78-1.54.08.31-1,1.47-1.48-.45-.3-.72.2-.32-.2.52-1.35.06-1.48-.65.51-.81,1.58-2,1.24.1,2.1-1.88,4.26-.09,1.81-1.2,1.45-1.56,1.24-2.08-.35L965,137.9l-.8,1.24-.7.19-.37-1.58-.26-.48-.58,2.32-.59.15-.22-1.65-.28-1.1-.81.95-.54,2.48-.56-.2-.18-.93-.41-.28-.13,1.06.2,1.48-.29.8-.56-.43-.55-.7-.93.54-.85.22v-.72l.16-.89-1.68.5-2,1.65-1.58,2.28.54.37.61.72-2.74,3.5L946,152.54l-2.13,5.12-.85.59-.74.93L940.91,157l-.28-1.8L939.06,153l-.63-1.46-.21-1.65.09-1.78-.12-2.67-.13-2.67-.13-2.66-.13-2.67-.13-2.69-.13-2.69-.13-2.68-.13-2.69-.13-2.71-.13-2.7-.13-2.71-.13-2.72-.13-2.72-.13-2.73-.13-2.72-.13-2.45.43-.37,1.05-.7.69.09.59,1.06.5.7.58-.2.5-1,0-1.37.66-1,.8-.15.74,0,.37-.46,0-.67-.26-1.08.09-1.29,1.85-2.3L947,95l.8-.78.22-1.59,1.3-1.65.65-.94.16-.84-.33-1,0-1.94.44-2.32.54-2.54,1.2-2.28,2-2.5.5-3.3.54-3.48,2.37-3.41,2.68-3.87,1.54-2.21,2.76-4,2-2.87,1-1.32,1-1.57,1.68.46,1.67.46-.24,2.28,0,1.06Zm15.12,73.92-1,.48-1.11-.2,0,1.27-.13.47-1.24-.67-.45-.43,0-1.7,1.09-1.61.84-.63,1.07.44.82,1.8.07.78ZM979,132.08l-.66.49-.71-.15,0-1.21.23-.4.24-.19.37.33Z"/>
  <path id="US-MI" class="cls-1" d="M624.39,38.56l-.09.43.63.13-.11.22-.68.39-1.95.8-1.32.26-.66-.28-.08-.54.54-.78V38.8h-.54l.13-.31.8-.61L627.88,34l2.91-1.43,1.55-.46.26.22-1.68,1.48-.28.61.07.41-.55.78-5,2.74-.78.26ZM637.18,57l-.31.83,0,.5-2.11,2.19L634,61.91l-.65.22-.52-.94v-.76l.52-.58.52-.81.07-1.13-.2-.41-.65,1,.35.22.12.17-.13.37L631,58.74l-.74-.8.11-1.09.81-1.41,2.93-3,1.3-.83,3.67-1.32,2-.3h2l1.46.43.91.87-.87.58-4,.48-.12.15.76.46.15.33-.7.87L637.18,57Zm67.39,18,.54.33.37.55.91,1.56.45,1.06.27,1.55.19.52,0,.91-.61.61-.17.48.37.49,2.06.13.94.48.36.54-.24.59.13.63.5.67,1.64,1,.41.49-.11.51-.5.34-.87.15-6.32-1L703,87.44l-.28.36-.19,0-.29-.09-.54,0-.28-.22-.22-.63-.56-.41-.87-.18-.76.48-.87,1.89.13.35-.15,1.22.23.34,0,.27-.24.23-.52,0-.78-.3-3-2.87-2.25-1.43-2.78-1-2.2-.52-1.61,0-1.34.74-1,1.44-1.64.82-2.2.2-1.21.39-.18.58-.8,0-1.41-.56-1.44-.15-1.5.24-1.1.58L670,91l-.22.87-.84.76-2.22,1.18-.11.45-1.17,1.35-.37.74V97l-.39,0-.8-.82,0-1.09.72-1.39.65-.67.57,0,.35-.61.13-1.26-.2-.63-1.11.24-.58.5-.74.11-.89-.3-.78.69-.68,1.67-.82,1.09-.94.52-.63-.58-.32-1.65V91.58L659,90l-.2-.31-.39.5-.59,1.31-.8,2.86-.52.92-.69.39-1.09,1.73-1.5,3-1.69,3-1.87,2.85-1.13,1.54-.37.22-.17.52-.05,1.19-.83-.34-.71-1-.42-1,0-1,1-2.54.09-.41-.11-.24-.56-.28-1.26.47-1.28.09-.4-.17-.17-.44,0-.69.26-.81.76-1.5V98.47l.35-.81-.33-1.52.09-.73-.54-.79-1.44-1L639,92.19l.36-1.56-.15-.66-.84-1-3.54-1.16-2.41-.54-2.39,0-1.7-.43-1.93-.12L625.21,86l-1.22-.7-1.23-.71-1.22-.7-2.19-.61-2.18-.61L615,82l-2.19-.61-2.18-.61-2.19-.61-2.18-.61L604.05,79l-.48-1.06-.48-1.06-.49-1-.48-1.06-1-.44-.54-.24-.39-.56-.89.24-.35-.93.1-.2,1.14-.24,3.28-1.32,2.8-1.61,2.32-1.91,2.89-1.16,3.46-.43,2.47-.67,1.5-.92,2-1.8L622,62l1.41-.17,1.06-.7.72-1.22,1.35-1.39,2-1.58,1.13-.63.28.3.11.55L630,58l.5.65,1.07.5.49.66-.1.84.3.7.67.58.18,1.26-.31,1.94,0,1.26L633,67l.24.31.39-.31.48-.69.17-.42.13-.43,2.91-2,.57-.1,1,.5,4.39.71,1.74.5,1.84,1.13.61.42,2.24,3.64,1,1.42.63.39.35.56.3,1.28.35.39,3.26.27,1.48-.24.91-.52,1,.34,1.1,1.18,1.07.34,1.08-.52,1,0,.94.55.45.41.27,0,1.86-1.8L669,72.75,672,71l1.73-.78.48.19,2.76-.58,2.48,0,3.28.35,3-.41,2.8-1.17,2.48-.65,2.17-.14.81.33-.53.78-.28,1.35,0,1.91-.18,1.2-.34.5,0,.49.24.46,2.09.3,1.09.61,1.26,0,1.43-.56,1.09.2.76,1,1.1.18,1.07-.7.76-.67.65-.3.45.1Zm3.93,3.59v.54L708,79l-.45-.37-.35-.61-.45-1.52L706,75.38l1-1.22.61-.15.67.28.09.72L708,76.16l0,1.19.53,1.2Zm.23,2.93-.25.15-.87-1-.18-.61.13-.5.33,0,.56.47.31.53.08.62Zm10.76,5.84.17.55-.43.82-1.22.42-2.48,0-1.62-.32-.74-.59-.16-.3.07-.65.35,0,.54.35.8-.15,1.05-.67.56-.5,0-.33-.33-.63.28-.26,1.31.24.49.41.89,1.41.42.26Zm-18.38,4.81,2.24.36.22-.19.63.67.1.55L704,94l-.39.26-.5,0-.8-.48L701,92.54l.07-.41Zm-3.58.71,1.24.46L701,94.84l2.11.89,2,.26,1.46.53.93.84.67.93.41,1,1,.58,1.5.13,1.19.42.87.75,4.8,1.9,2,1,1.11,1,.31.63-.09.63.11.66.82,1.3.31.11.19.63.07,1.13.24.76.41.39-.24.15-1.48-.65-.84.21-.39.85-.05.79.28.76,1.89,2.26.5,2.06.09,2.48-.24,1-.2,2.13-.15,3.3,0,1.13-.63,1.09-1.69,1.58v-.3l-.41-.07-.45.24-.61,1.35-.52,2.46-.63,1.34-.74.2-.44.35-.15.5-.8.34L714,137l-1,.75-.74,2.09,0,1-.35,1.24,0,1.08.39.89,1.18.89,2,.88,1.17.13.81-.37.85-1.46.82-.57,1-.25.37-.66,1.65-2.91v-.65l-.59-.24.09-.19.78-.11.66-.39.58-.66,1-.5,2.45-.76,1.31-.87.84-.15,1.2.46,1.57,1.08,1.25,1.55.92,2,1.17,5.28,1.41,8.49,1,4.72.52,1,.26.5-1.24,6.6-1,2.71-1.74,1.57-1.73,1.52-2.15,2.56-2.37,1.26-1.2.74-.26.48-.3-.15L725.9,179l-.57,1.91-.22,1.46.2.82-.5.52-.89,1-.17.35.06.58-.19.28-.42,0-.34.28-.79,1-1.39,2.65-.22.48-.17.15-5.8.22-5.8.22-5.8.22-5.8.23V190h-36l1.13-.65,1.86-1.52,1-1.35,1-1.78,1-2.2,2-3.32,1-2,.92-2.56.71-2.67.46-2.79.22-2.91v-3l-.47-3-.91-3.08-.5-1.57-.18-.43-1.65-4-1.87-5.52,0-.46,1.74-3.3,0-.45-.19-2.68-.37-1.35-.89-1.82,0-.46,1.81-2.32L670,131l1-2.15.65-2.5.29-2.87v-1.91l-.31-1,0-.74.38-.52,2-.66.65-1.13.15-2,.39-1,.64,0,.62-.4.55-.84.74-.24.93.37,1.28-1.24,1.65-2.85,1.26-1.6.89-.33.16.26-.55.85-.17,1,.22,1-.18,1-.41,1.35.26.43-.7,2.16,0,1.08.43.81.51-.27.6-1.39.18-.74-.24-.1.09-.59.41-1.09.37-.52.32.05.09.6-.15,1.13-.94,2.68-.19.82.21.22,1.13-1.67.94-2.66.72-2.06.13-1.11-.22-2.89,0-1.19.28-.82,1-.92,1.68-1,1.67-.56,1.65-.07,1.15-.28.65-.5-.22-.39-1.12-.29-.83-.65-.57-1-.19-1.15.19-1.3.7-1.28L694,95.06l.39-.93-.44-.59.52-.2,1.5.16,1-.16.6-.5Zm-13.76,4.72-.6.13-.46-.29.07-1.17.61-2,.6-.93.79.37-.16.24.16,2.17-.29,1Zm-7.42,12.38-.2.35-.48,0-.39-.34-.37-1.07.13-.24.94.14.34.47,0,.72Z"/>
  <path id="US-MN" class="cls-1" d="M547.23,20.53l2.1-.31,1.8.09,1.79.15,1,.22,2.78,1.15,1.81.94,2.62,1.76,1.44.78.69,1.82.81,2.33h1.15l.87-1.37,2.21-.24,2.91,1,2.55,2.72L577.42,34l2.24,1.2h2.28l2.91-1.2,3.1-2.32,2.22-.41,1.31.23.75,1.81.92.69,2.39-.21,5,.36,4-.51.91,1,.81,1.63,1.62.52,2.18-.52,3.45.36-.48.25-.5,0-.67.39-.83.83-1.91,1.19-3,1.55-3.44,1.41-7,2.56-4.35,2.65L589.41,49l-7.49,7.93-4.52,4.21L570.08,67l-.68.74-.06.69-.31,0-1.21,1.43-.52.91-1.18.26V85.57l-.58.37-.72.86-1,.2-4.71,3-.78.86-.85,2L555.94,95l-.39,1.19.08,1.59L558,99.08l.87,1.22.43,1.51-.06,1.29L558,105.64l-.21,1,.13,3.1-.59,1,.48,2.5,0,.87-.37,2.74-.26.8.46,1.43.06.15,2.2,2,1.86,1.09,1.66.36,1.3.83,1,1.33,1.26.87,1.59.41,1.63,1.11,2.48,2.71,1.25,2.3,2.16,1.63,3.52,1.74,2.3,1.54L583,138.4l.73,3.36.57,7.08H493.52V105.16l-1.34-1.83-2.91-1.49-.72-.89-1.35-2.22-.54-1-.09-.74.65-.83,2.63-2.41.83-1.11.41-1.08.61-2.48-.24-1.91.17-3L491.09,82,491,80.89l-.34-1.39-2-3.67-.48-3-.5-1.46-.17-3.78.06-1.08.39-2.05-.84-1.39L487,62l-.39-9.08-.26-1.3.08-4.22-1.52-4.47-.72-1.52-.37-1.85,0-.89-1.24-3.06-.83-3.39.07-3L481.58,27l.09-1.74-.22-2.62.26-1.48,0-2.31L480,10.6h31.85l4.11,0L516.07,5l0-4.44,3.76.53,1.13.82.36.39-.11,1.22.31,3.71.69,3.09L523.83,14v0l.13,1.44.52.91.94.83,3.62,1,6.26,1.19,3.56,1.35.83,1.54,1.67.61,2.5-.3,1.76-.64,1.61-1.47Zm0,0h0Z"/>
  <path id="US-MO" class="cls-1" d="M581,221.79l-1,3.5,0,2.91.59,3.52.72,2.63.82,1.74,2.94,3.32,5.08,4.86,3.17,4.59,1.3,4.36,1.5,1.74,1.72-.85,2.17.38,2.34.73,1.22.85.28.3.13.31-.1.32-.33.83L600.64,265l-1,3.28.15,1.22L601,271.3l2.19,2.32,1.91,1.5,1.65.7,2.56,1.87,3.48,3,1.74,2.26v1.5l.35,1.54.73,1.57v1.48l-.73,1.43.28,1.91,1.28,2.41,1.07,1.46.89.5.21,0,.05-.2-.11-.33,0-.3.07-.41.19-.16.14,0,.84.59,1.22,1.32.56,1.74-.11,2.19-.49,2.07-.81,2-.93.66-.41-.11-.88-.35-.36.11-.81.5-.91,1.89,0,.06-.33.18-.24-.18,0-.11-.17-.56-.38-.57h-.3l-.24,0-.09.28-.1.59.06.26.29,1.62-.25,1.14-.86.47-.13.65.48.74v.33l-.18.26-.59.09-.45.17-.35.59.7,1.13-.14,1.36-1,1.59-.13.63-3.18,0-2.88.05-2.87,0-2.87.05,1.37-2.29.87-.82.65-.87,1.17-.81,1.28-1.75.14-.81-.13-.8-.76-1.09-.76-1.71H525.61V294.17l0-2.84v-5.7l0-2.86v-2.85l0-2.87V265.54l0-2.91v-5.8l0-2.91V251l0-.85-2.71-1.56-1.22-1.46-.61-1.89-1.23-1.87-1.83-1.86-.3-2,1.23-2.11,1-1.09.82,0,.09-.91-.65-1.81-.94-.67-1.24.46-1.06,0-4-2.92-.28-.21-1.24-1.94-.52-2.32-1-1.52-1.5-.7-.95-1.52-.4-2.37-1-2.39-.44-.71,4.35,0,4.41,0,4.39,0,4.41,0,4.4,0H532l4.39,0,4.41,0,4.39,0,4.39,0,4.41,0,4.39,0,4.41,0,4.4,0,4.41,0,4.39,0,.87,1.67.94.48.19.54,1.24.85.28.85Z"/>
  <path id="US-MS" class="cls-1" d="M638,340l1.54,1.39-.05.5,0,.34-.11,1-.43,3.91-.43,3.89-.42,3.89-.43,3.87-.43,3.88-.42,3.85-.43,3.85L636,374.2l-.43,3.84-.43,3.83-.42,3.82-.43,3.82-.42,3.79-.43,3.8-.43,3.78-.42,3.78.18,3.84.19,3.83.18,3.82.19,3.82.18,3.8.19,3.8.18,3.78.23,4.15-5.1.31-2.22-1-.93-.2-.56,0-2.59.94-3,.73-.71-.23-1,0-2.15,2.46-1.35.61-.43-.16-.48-.17-.33-.28-.65-1.46-.21-1.06-.77-2.3-.89-1.28-1-.85-.47-.85v-.58l-.31-1,0-.82,1.23-3.13.52-2.34H577.29l.08-.56.72-.72.26-.91-.6-2.19.23-1.2,1-.22.52-1.17v-2.11l.41-1.43.82-.74.77-1.73.75-2.72,1.5-2.26,2.26-1.78,1.11-1.54.07-1.18.24-.56.47-.3.76-.81,1-1.11.16-.76-.05-.54-.08-.57-.79-1-1.21-.87L587,392.4l0-1.06-.26-.93-.59-.79.13-.74.83-.69,0-.65-.76-.61v-1.09l.74-1.58,0-1.09-.84-.61-.09-1-.06-.52.8-3.67-.19-.48-.79-1.11-.09-1.36.48-1.65-.24-1.27-.67-.47-.17-.52-.2-.76.72-.7,0-.65-.65-.59.41-.84,1.46-1.07.41-.61.42-.65.26-1.54-.2-.93-.35-.61.17-.31L588,361l1.74-.56.5-.38.12-.49-.56-1.18.54-1.26,1.61-1.34.85-1.16.09-1,.78-.74,1.45-.47.89-1.89.35-3.31.42-1.41.75-.21.39-.46.13-1,.9-1,1.67-1,.67-1-.21-.52V340h32.25l4.7,0Zm-6.71,98.62-.22.22-1.54-.42-.94-.39-.17-.39,2.6.7Z"/>
  <path id="US-MT" class="cls-1" d="M361.77,89.08v5.8l0,5.76,0,5.76,0,5.73v.07l0,.08v.14H239v9.23l0,3.08-1.15-.65-.76-.74-.63-.85-1.19-2.38-.66-.87-.6-.52-.61,0-.74.29-.57.56-.19,1-.55,1.15,0,1,.24.49-.07.27-.37.21-2.78-.35-2.41.48-1.65-.37-3.17.18-2.74-.33-.95.16-.61.52-.76,1.3-.2.24-.3,0-4.46-.71h-1.19l-1.24.85-.39.59-.09.8-.28.22-.39,0-1-.52-1-.85-.52-.63-.11-1.42-.83-1.62-.15-1.46-.54-1.24-.81-1.23-.82-.81-.81-.26-1.52.17-.32-.13-1.63-1.63-.5-.71-.15-.65.56-1.57-.17-.87-.41-1.08-.57-.89-.94-.77-.86-1.69-1.57-2.37-.43-1.84-.61-1.54-.17-1.51-.59-.93.06-1.19-.1-.33-.18-.15-1.06-.67-1.2-1.18-.61-.28h-.26l-.15.3-.09.55-1.93,2-1.63.92-.8.91-.72.45-.39,0-.54-.3-1.7-1.33-1.41-.61-.15-.3.07-1.13.65-1.31-.66-2.39.2-.84.52-.57,1.52-.89.15-.43-.34-2.28-.85-.85-.24-.48.26-1.85-.37-1.23.67-1,.05-1.78.54-1.86.57-2.74-.13-1.18.73-1.28.24-1.3,0-.91-.11-.55-.26-.21h-.52l-2.39.5-.77-.07L177,71l-.39-.45-.11-1-.54-.68-.28-.11-1.09.41-.24,0-.11-.19-.45-.89-1.76-1.72-.85-2-1.7-1.75-1.63-2.39-3.14-3.74-.76-.76-2.37-1.3-1.87-1.89-1.91-1.35-.18-.22,0-.15.11-.11.54-.37.13-.69-.73-1.42.36-1.39-.49-1.93-.25-.65-1.36-1.8L155,40.73l-1.39-1.59-1.87-2.62V10.58H361.36l0,5,0,5,0,5,0,5,0,5,0,4.94v4.93l0,4.91,0,4.91,0,4.88,0,4.85,0,4.86,0,4.82,0,4.81,0,4.78Z"/>
  <path id="US-NC" class="cls-1" d="M851,306.75l-.46,1.69.24,1,.93,1,1,2.48.81,3.34-1.09-1.35-1.17-.73-1.81-.55-1.64-1,.12,1.39-.15,1.5-1.24-.46-.86-.5.76,1.59-1.63-.48-1.09.1-.71,1.4-.94.86-1.41.27L838.55,317l-.67-1.56-.28-1.74-.11,2.06.37,2.14-.13,1.64,2,.29,1.88-.26,2.53.08,1.65-.32,1-.52,2.39.45.17,2-.28,1.95-.13,2.07.67,0,.78-.66.39-3.73,2.18-1.37.73.09.7,1.21.24,1.22.24,1.67-.52,2.54-3.35,3-2.39,2.73-1.22.55-1.76-.31-2-.69-1-.13-.74.22-.46-.83-.3-1.54-.78-.52-.59.06-.41,1.63-1.87.46-2.54-.66-2.67-1.38,1.15,1.47,6.62,2.74.74.52.7.74-.92,1.17-.73,1.31-.11,1-.26.65-2.63,1.76-1.42-.31-3.65-3.17,1.66,2.74,1.34,1.17,2.68.61,5-1,1.65,1.11-1.36,2-1.35,1.39-1.76.15-1.56.37-.46.95-1.11.05-1.73.06-2.68.09-1.47-.22-2,1.94-.78.26-1.08-.37-.46-1.55-.48-.78,0,2.93.19.77.39.6L824,351.48l-2.3,2-.84.54-.94,1-1.93,2.86-.48,2.07-.69,2.32-.09-1,.11-1.76-.48-2-.29,3.69-.75,1.7-6.85-.11-2.76.85L803.14,361l-2.36-2.39-2.35-2.39-2.35-2.39-2.36-2.41-2.35-2.4L789,346.63l-2.36-2.41-2.46-.1-2.47-.07-2.46-.09-2.47-.08-2.46-.09-2.46-.07-2.47-.1-2.46-.07-.1-1.67-.07-1.18-1.54-2-.91-1.19-1.94,1-.11-.5.07-.89-.17-.31-.53-.23-2.76-.13-2.76-.13-2.77-.13-2.76-.13-2.76-.13-2.76-.13-2.76-.12-2.76-.13-.63-.21-1.24.71-3.28,1.05-1.61.93-.6-.06-2.78.91-2.78.91h-.31l-5.28.07-5.28.08-5.28.07-5.29.08.65-4.53.45-1,.5-.24,1.81,0,1.15-.52,1-2.73,2.32-2.15,1-.53,1.55-.43,3.69-.52,4-2.09,2.85-2,2.26-.56.7-.72.52-1,.32-1.3.24-.27,1.31.09,1-1.13,1-.65,1-.37.6,0,.22.33.16,1,.21.31.41,0,.55-.22.74-.61,1.93-1.93,1.28-.74,2-.43,1.43,1,.85-.35,2.5-3.95,1-.72.75-.28,1.29-.05,0-1.1.45-1.65,0-1.13.8-1.64.29.33,6.32.05,6.32.06,6.32.06,6.32,0,6.32.06,6.32.05,6.32.06,6.31.05,6.32.06,6.32.06,6.32.05,6.32.06,6.32,0,6.32.06,6.32.05,4.2.3Zm1.36,0h.55l1.74,6.93,3.49,7.52.42,1.3-.81-1.13-2.58-5-1.44-3.63-1.37-6Zm4.41,14.93-.26.45-1.17-2.38,1.19.76.2.63,0,.54Zm1.59,13.16-2.34.57-.2-.18,2.69-1.21.85-4.28.11-2-.41-3.48,0-.73.45,1.13.39,3.27-.15,2.46L859,334l-.63.85Zm-4.15,1.05L851,337.45l-.35-.09,2.07-1.09Zm-12.58,11.59-.43.24,1.59-2.63,3.15-3.36.86-.52-2.63,2.86-2.54,3.41Zm-.74-.24-.39.05-.69-.24-.94-.44-.21-.34.91.11,1.32.86Z"/>
  <path id="US-ND" class="cls-1" d="M491.79,89.08h-130l0-4.79,0-4.78,0-4.81,0-4.82,0-4.86,0-4.85,0-4.87,0-4.92,0-4.91,0-4.92,0-4.95,0-5,0-5,0-5,0-5,0-5H480.12l1.7,8.25,0,2.31-.26,1.49.23,2.59-.1,1.74.26,2.23-.07,2.94.83,3.39,1.25,3.06,0,.89.37,1.83.72,1.52,1.54,4.49-.07,4.22.25,1.3.39,9.08.13,1.13.84,1.39-.39,2.06-.06,1.05.17,3.78.48,1.47.48,3,2,3.67.33,1.39.11,1.11.54,2.24-.17,3Z"/>
  <path id="US-NE" class="cls-1" d="M493.11,172.37l.54.11,1.16,2.08.48,3.7,1.06,3,1.65,2.26.82,1.65v1.06l.4,1.11.78,1.21.3,2-.15,2.87.33,1.52.82.18.37.39-.11.63.26.46.66.3.19.82-.3,1.35.24.83.78.36.15.66-.48,1,.07.77.63.56.43,2.48.2,4.39-.07,2.56-.35.76.57,1.58,1.06,1.7.44.71,1,2.39.4,2.37.95,1.52,1.5.7,1,1.52.52,2.32,1.24,1.94.28.21H396.42v-20l0-2.87H361.58l0-5.78V196l0-5.81v-5.84l0-5.86,0-5.89,0-5.89,0-5.93h97.47l5.21,3.54,3.09,1.09,1.49-1,3.18-.59,4.91-.15,3.1.48,1.29,1.12,2.52,1.26,3.77,1.39,2.24,1.52.74,1.63,1.32,1Z"/>
  <path id="US-NH" class="cls-1" d="M942.24,159.12l-.78,3.08-.5,1.52-2-.12-.89.24-1.78,1.1-1.1.41-1.79,1.85-1.52.65-2.49-.1-2.48-.07-2.48-.07-2.49-.1-2.46-.07-2.48-.09-2.49-.08-2.48-.09-.3-.83-1-1.52-.24-.63.06-.71.53-1.91.39-.59.41-1.11.61-4.43.54-2.58.39-4.7.39-1.39.44-.85.71-2.23,1.29-1.83.86-2.24,1-2,.17-1.15.76-2.5.54-4.46.52-.71,2.33-.61.74-.46,2.49-1.86.77-.77.51-.78.38-1.26.28-.34.06-.68-.87-3,0-1.07,1.93-3.36-.41-1.94.28-.48,1.7-4.77,1.61-2.2,2.19.74,1.17-.07.87-.76.13,2.44.13,2.73.15,2.72.13,2.72.13,2.73.13,2.7L937,124l.14,2.7.13,2.69.13,2.69.13,2.68.13,2.69.15,2.67.13,2.67.13,2.67.13,2.66-.09,1.76.22,1.65L939,153l1.58,2.13.27,1.8Z"/>
  <path id="US-NJ" class="cls-1" d="M886.84,207.74l-.3,1.8-1.72,3.63-.72.84-.86.74-.65.31-.59.58-.68.9-.65,1.82.39,1.65,3.33.61.89-.52.46,1.19.26,1.65-.26,1.78-.55,1.79-.43,2.25-.35,3.39-.54,3-.07-.92.33-3.71-.53.39-.38.85-1,4.78-1.41,2.54-1.3,1.76-1.33-.29.29,1.39-.37.72-.31,1.52-.8,1-.74-.09-1.08.68-.42.54,0,1-.72.89-2.6,4.61-2.24,1.36-.54-.21.6-2.17.4-2.2-1.37-1-1.31-.5-1.5.07-1.65-1.7-2.13-1.25-3-3.37.1-.94-.08-1.58.91-2.5.87-1.74,1.2-.91,3.49-.93.87-1.39.52-1.16.89-.78,2-1.41,3-1.71-4.21-5.72-1-.33-1.11-2.8-1.28-.78-.31-.45-.06-2.15.11-1.24.19-.72,1.09-.61.63-1.24,0-.65-.84-2v-.63l1.6-1.23,2.07-2.39,1.25-2.61.5-.76.61-.54,1.37-.74,1.72,1.06,1.72,1.06,1.73,1.05,1.72,1.06,1.72,1,1.73,1.06,1.72,1.06,1.69,1.05Zm-3.91,29.91-2,3.41,0-.65,2.56-4.24-.48,1.48Z"/>
  <path id="US-NM" class="cls-1" d="M379.39,307.84l-.72,0,0,6.06,0,6,0,6,0,6v6l0,5.95,0,6,0,5.91,0,5.89,0,5.88,0,5.85,0,5.84,0,5.82,0,5.8,0,5.78,0,5.76H366.49l-3.93,0H331.21l-3.93,0H315.42l1.78,3.71h0l2.11,1.05-.12,0-3.84,0-3.84,0-3.83,0-3.84,0L300,407l-3.84,0-3.84,0-3.83,0v2.3l0,2.28v2.3l0,2.27-6.17,0-6.15,0h-2.21V312.36l0-7.65V297H379.39v10.84Z"/>
  <path id="US-NV" class="cls-1" d="M186.82,297l0,8.48,0,9.31-.34.13-1,2.13-1.11,1-.85,0-.85-.61-.87-1.21-1.32-.7-1.72-.17-1.52.19-1.34.55-.81.8-.45,1.54.15.63.8,1.43.05,2.22.11,1.8.49,1,.07,1.15-.3,1.81.24,1.49,1,2.61-.34,7.54v.15l-4.74-4.5-4.43-4.21-4.43-4.22L158.84,323l-4.43-4.24L150,314.48l-4.42-4.28-4.43-4.28-3.19-3-3.21-3-3.2-3-3.19-3-3.2-3-3.19-3-3.21-3-3.2-3-4.08-3.59-4.09-3.6-4.08-3.61-4.08-3.62-4.09-3.63L91,260.22l-4.1-3.63-4.07-3.65v-4.21l0-4.2V184.36h65l6.49,0h32.43v92.09l0,3.43V297Z"/>
  <path id="US-NY" class="cls-1" d="M898.29,166.66l-.56,2-.55,2-.56,2-.55,2-.56,2-.56,2-.55,2-.56,2,.47.57-.15,2.22-.15,2.23-.15,2.22-.15,2.21-.15,2.2-.14,2.21-.15,2.2-.15,2.21.54.89.53.89-.64.4-1,.65-1.08.69-1.41.89.71,1.15.91,1.44-.73.59-1.87,2-1.26,1.07-1,.35-.63.91-.7.59.67-2,.72-1.68.61-3.28-.18-2.67-.76-1.1-.78-.74.91,2.63.14,3.23,0,.09-1.66-1-1.73-1.05-1.72-1.06-1.72-1.06-1.73-1.05-1.72-1.06-1.72-1.05L873,199.33l-.37-.87-.63-.67-3.11-1.17-.8-.77-.72-1.06-.5-1.3-.26-1.35,0-1.07.22-1.21-.72-.8,0-.76-.46-.5-2-.9-.61-1.28-1.35-1.21H784.53V178l1-.57,3.36-2.13,1.66-1.56,1.76-1.3,1.86-1,1.46-1.31,1.09-1.61,1.21-1.21,1.31-.79.71-.84.09-.87-.24-1.18-.57-1.49-.08-1.16.43-.86.09-.57-.24-.3-2.76-.85.11-4.1,0-.11.15-.05,6.34-1.82,4-.63,4.93-.17,5.87.89,2.28.82,1.45,1,1.66.28,1.89-.49,2.62-.16,3.35.16,1.8.24.24.34.22-.09.22-.52.89-.58,2.5-.87.34.19.52-.45.7-1.05,1.28-1.17,1.87-1.28,1.69-.67,1.5-.05,1-.32.5-.57.15-.52-.21-.45.1-.48.07-.24-.07-.2-.19-.41-.15-2.11-.29-1-.41-.72-.26-.57,0-.5.91-.61-.07.57.24.17.43-.26,1-1.26.11-.48.67-.5.48-.76-.54-.12-1.28.23-.29-.23.66-1-.13-.58-.2-.24-.43-.09-1.44.89-.45.07,0-.46-.74-1.06,2-1.87,7.08-5.21.72-.79.26-.71-.19-.61-.2-.15.11-.15,6.82-6.72,3.87-3.12,3.21-1.74,2.43-.83,1.65.11.92-.11h4.86l7.26,0,7.26,0h4.3l.13,1.63-.37,1.93.3,2.09-.41,4.36,1.09,3.35-.25,2.24.07,2.41-.19.6-.85,1.39-.5,1.35-.28,1.37,0,.89.74,3.93.15,1.72,0,1-.65,3.23,0,.9.18.26H896l.74-1,.34-.15.42.25,1,1.51,0,2.73,0,2,0,2.19-.07,3.28-.06,2.39,0,2.19,0,1.66-.24,1.23.35,1.46Zm-49.87-36.54-.55.2-.13-.27.09-.28.46-.34h.76l-.09.26-.54.43Zm-2.61,6.95-.26.07,0-.52.26-.33.52-.15,0,.26-.52.67Zm-46.55,23.18-.53.82-.52-.08-.37-.26-.13-.52.09-.65.46-.27,1.24.24,0,.26-.28.46Zm112,47.64L910,209.37l1.11.15,1-.44.91-.89,2.11-1.21,1.82-.52.58-.11.85.84,1.7-.67,1.76-.37L914.23,210l-1.56.42-2.22,1.13-2.1.82-1.52.29-7.52,2.84-.59,0-.65-.27-6.21,1.46-2.54.17-2.32.5,1.71-1.17,0-.44-.41-.36-.91.1-.94,1.2-1.51.41-.29-1.32.5-1,.68-1,1.49-1.52,2.13-1,1.07-.84.74.74.17-1,.57-.57.63-.32h1.51l.81-.14.59-.34.62,0,1.64.44,1.62-.13,1.29-.63,1.36-.2,3.57-.15,3.56-.46,1.43-.82,3-2.28,1.72-.63-2.66,2.63-1.45,1.28ZM882,218.51l-.83.09.83-2.19,1.54-1,.56.21,0,.78-.23.66-1,1-.87.43Z"/>
  <path id="US-OH" class="cls-1" d="M771.54,215.67l-2,1-.39.93.63,1.17.33,1.52,0,1.85L769,226.22l-2.37,6.26-1.19,3.93,0,1.61-1.55,2.1-3.08,2.59-2.15,1.56-1.22.53-1,0-.81-.63-.93.42-1,1.48-.94.76-.89,0-.76,1-.63,1.85-.6,1.07-.55.28,0,1,.46,1.59,0,.57-.26,0-.24-.09-.61.35-.67.89-.26,0-.19-.15-.18-1.17-.56-.81-.89-.48-1.24,1.07-1.59,2.63-.69,1.71.26,1.18.15,1.73-.41.7-.85.26-.69.95-.46,1.59-1.2,1L737,266l-2-.74-.15-.05-2.39-2-1.5-1.93-.63-1.84-2.08-.09L724.72,261l-2.67.24-1.82-1.15-1.35-.46-1.35.39-1.3.74-1.07-.45-1.34-1.37-2.09-1-2.87-.54-2-1.5-1.09-2.43-1.19-1.68-1.24-.93-1.39-.26-1.48.37-1.15-.18-.81-.78-1,.09-1,.74v-7.45l.08-7.34,0-7.35.06-7.41.06-7.45,0-7.47.07-7.52.06-7.56,5.8-.23,5.82-.2,5.8-.24,5.82-.21.16-.14,0,.07.24.41,1.57.26,1.08.48.83.72,3,1.43.93.87.91.48.92.09.61-.27.36-.63.42-.06.52.56,1.71.61,0,.18-4.72,1.06-1,.5,1.19.33,1.19-.07,1.2-.5,1.39,0,1.2.24.39-.21.15-.11,2.06,1.39.78.22.79-.16.84-.52,1.81-.69,2.82-.83,2.71-.35,2.59.16,1.65-.24,1.5-.87,3.32-2.85,3.8-2.3,6.28-2.87,6.08-2.24v31Z"/>
  <path id="US-OK" class="cls-1" d="M525.61,307.84l.39,3,.39,3,.39,3,.39,3,.39,3,.39,3,.38,3,.39,3,0,2.29-.06,2.32,0,2.32-.05,2.29-.06,2.3,0,2.3-.06,2.3-.06,2.3,0,2.27-.06,2.3,0,2.28,0,2.28-.06,2.28-.05,2.26,0,2.28-.06,2.26L524,367.32l-1-.66-1.81-.78-1.61-1.56-3.21-2-1.22-.47-.39.06-.65,1-1.72.76-.93,0-1.67-.28-.33-.24-.24-.59-.67-.39-.5.32-2.45.79-.35.58-1.39,0-1.37-.41-3.45,1.28-1.18,1-1.24.33-.63,1-.39-.14-1.3-1.21-1.32-.35-1.83-1.19-.06-1.05-.2-.13-.31-.11-.41.09-.8.91-.46.22-.45,0-1.78-.59-.74-1.08-.35-.33-.41-.07-.76.33-.42,1.17-.35.33L483,364l0,.59-.65,1.63-.35.33-.46-.05-.47-.41-.35-.57-.15-.51.26-1.27-.16-.45-.36-.13-.85.61-.76,0-1,.61-.59.18-.56-.15-.91-1-1.55-.63-.62-1.16-.27-.34-.34-.09-.33,0-.56.37-1.79,1.53-.82.49-.7.09-.69-.15-.43-.39-.07-1.55-.41-.47-1.66-1-.36-.91L464.9,358l-2,.21-2.48-.13-1.11,1.11-.59.2-.69-.22-2-1.52-2.13.32-1.21-.17-3-1.13-2.32-.11-1-.21-.52-.26-.22-1.74-.93-1.46-.29-.41-1.58-1-.26,0-.17.23-.35,1.16-.48.06-1.82-.33-1.66.35-.93-.58-3.17-2.68-1.28-.71-1-.22V338.58l0-2.54V323.28l0-2.56V310.44l0-2.6H379.39V297H525.61v10.84Z"/>
  <path id="US-OR" class="cls-1" d="M26.68,83.79l1.75-.63,1.37.49,1.74,1.13,1.72,3.42L35,93.89l.37,1.89L36.64,97l1.55.06,6.25.83.92-.06h0l1.13-.22L50,95.39l3.84-.7,4.54.15,2.78.63,1,1.07,2.42.11,5.75-1.26,6.35-.89,3.41-.9L84,91.71l8.8-2.41L97.21,89l2.22-.91.52-.46.32,0h9.24l4.64,0h9.26l4.63,0h9l.48,1.1,1.81,2.15,2.58,1.83,1.68,1.93.76,2-1.26,4.58-3.28,7.11L138,112.81l-.3,2-1.61,3.31-3,4.69-1.44,3.47.07,2.24,1,1.31,1.93.36,1.33.74.71,1.09,0,1-.67.93-.19,1,.28,1-.22,1.78-1.11,3.63,0,.13v21.87l0,5.28v5.26l0,5.26v5.23h-121l-4.76,0-2.21-2.85-1-4.27-.18-1.79L6,170.65l-.67-2-1.67-3.38.72-2.94.76-1.8L7,152.65l.45-.63.79,0,1.38-1.35-.63-.3-1,.63.85-3.11,1-2.69.61-1,.31-8.78.56-6.73.91-2.24-.32-2.3.36-3.13-.26-3.17L14,102.57l-.26-1.88.6-2.5-.56-6.61L14,84.13l-.48-.95-.26-1,.46-.15.89,1.09,4.15,0,2.67-1,1,.33,1.12,1.36,1.4.28Z"/>
  <path id="US-PA" class="cls-1" d="M873.07,199.31l-1.37.76-.61.54-.5.76L869.35,204l-2.08,2.37-1.59,1.22v.63l.83,2,0,.64-.63,1.25-1.09.61-.19.72-.11,1.24.06,2.15.31.45,1.28.76,1.09,2.81,1,.34,4.21,5.72-3,1.69-2,1.42-.87.76-1.72,2-2.58.67-1.41.76-.35.35-1.56-.63-2.17.1-.74.27-.55.56-1.32,1.82H797.76l-4,0h-4l-2.28,0h-15.9v-5.25l0-2.61V218.3l0-2.63,0-2.42V184.62l3.25-1.21,1.44-.81,1.45-.78.76-.46.85-.41,5.47-3v6.43h2.41l2.39,0H811.2l2.39,0h45.69l2.41,0,1.35,1.21.62,1.26,2,.91.47.51v.75l.72.79-.22,1.23v1.07l.26,1.35.5,1.3.72,1,.8.78,3.13,1.16.63.69Z"/>
  <path id="US-RI" class="cls-1" d="M933.52,191.21l-.65.6-.69-.91-.35-1-.5-.56-.54-.2.46,2.15-1.09,1.61-.3,4.17-1.39,1.72-4.29,1.11-1.28-.11.22-1.33.44-.56.1-1.44.05-.95,0-1.59V192.1l0-2,0-1.76,0-1.28,0-1.76V184l1.32,0h1.79l1.73,0,1.07,0,1.32,0,0,1.06.08,1.61.72.26,0,1.31,0,.88.63.53.65.56.62,1.07Zm-.13,5-.88.63-1-.11.48-.85.19-1.26.48-1.39.28-.43.57-.37Zm-2.17.15-.48.42-.19-1.13.33-1.29.36,0,.16.68-.18,1.36Z"/>
  <path id="US-SC" class="cls-1" d="M805.64,363.62l-.22.07-4.62,3.12-1.37,1.37-3.8,5.26-1,3.35-.78-1.4.19-1.06v-.87l-1,1.85L794,378l-.82,1-2.5,1.93-1.37.32-1.56.53-.48,1.91-2.09,1.74-1.22.78-2.23-.48.69,1.69-.82,1.26-1.43,1-1.76.63-1-.07-.85.33-.68.81-1.65.76-1.71-.42-1.94-.26-1.08.44,1.82.76,1,1.08-.18,1.46-.5.56-1.15.76-.5-.11-.3-.69-.37-1.43-.54.3-.09.67-.46.24-1.63-2.28.09,1.74.55,1.33.56.69.56.39.13.63-1.12,1.5-.57.33-1,.24-.57.93.18.82-3.54-1.65-1.05-1.49,0-1.9-.66-2.17L758.09,391l-1.5-1-1-2.48-1-4.3-1.54-2.75-2.11-1.2-1.41-1.43-.73-1.63-.74-1.07-.77-.5-.43-.84-.06-1.2-1.2-1.58-3.54-2.92-.83-1.78-1.67-1.86-4.15-3.76h0l-4-7.32h0l-.5-1.48-.85-.61L728.7,351l-1.35-.73-2-1.85v0l-3.3-2.3.68-2.05,2.54-2.71.85-1.42.13,0h.32l2.78-.91,2.78-.89.59,0,1.61-.93,3.26-1.06,1.26-.7.63.2,2.76.11,2.78.13,2.77.12,2.76.12,2.76.13,2.78.12,2.76.13,2.76.11.54.22.16.31-.07.89.11.5,2-1,.9,1.17,1.54,2,.08,1.19.09,1.67,2.46.07,2.47.09,2.46.08,2.47.09,2.46.07,2.47.1,2.46.07,2.46.09,2.36,2.41,2.35,2.41,2.35,2.41,2.36,2.39,2.35,2.41,2.37,2.39,2.36,2.39Z"/>
  <path id="US-SD" class="cls-1" d="M491.79,89.08l-.59,2.48-.41,1.09-.85,1.1-2.63,2.4-.65.84.09.74.54.94,1.35,2.23.73.91,2.89,1.48,1.33,1.83v43.72l-2.52.09.3,1.5.68,1.46.13.86-.15.68-.46.61.11,1,.13.27,1.15.62.37.85.13,1,0,.72-.7,1.34-.19,1.76-.85,2.61-.95,1.59-.18.82.09.65,1.45,1.68.09.67.46.87.45,2-1.34-.34-1.31-1-.74-1.63-2.25-1.52-3.76-1.39-2.52-1.26-1.29-1.12-3.1-.48-4.91.15-3.19.59-1.48,1-3.09-1.09-5.21-3.54H361.45l0-6,0-6v-6l0-6,0-6,0-6.08,0-6.11,0-6.14h.56v-.14l0-.08v-.07l0-5.73,0-5.76,0-5.76v-5.8h130Z"/>
  <path id="US-TN" class="cls-1" d="M716.62,305.6l4,0,8.45,0,6,0,4.93,0,2.91,0,3.67,0,.81-.45,1.84.08,2.46.09-.8,1.67-.05,1.11-.45,1.65,0,1.09-1.27.06-.76.28-1,.72L744.82,316l-.87.35-1.43-1-2,.43-1.28.74-1.91,1.92-.74.62-.57.22-.41,0-.2-.32-.17-1-.22-.33h-.6l-1,.37-1,.65-1,1.11-1.32-.09-.24.27-.32,1.3-.51.95-.71.72-2.28.55-2.85,2-3.95,2.09-3.7.52-1.54.43-1,.53-2.32,2.15-1,2.73-1.16.52h-1.8l-.5.24-.46,1-.65,4.51-5.67-.06-5.67-.07-5.65-.08-5.67-.05-2.8,0-2.8,0-2.8,0h-2.8l-2.8,0-2.79,0-2.8,0-2.8,0-2.8,0-2.8,0-2.79,0-2.8,0-2.8,0-2.8,0-2.8,0-2.79,0-.23,0,.21.25.31.28h-4.74l-4.63,0H605.49l-4.44,0v-.06l.64-.89,2-1.44.87-1.91-.26-2.36.72-2.11,1.72-1.91.71-1.89-.3-1.87L608,324l2-1.18.28-.49-.07-.35,0-.41,0-.16.09-.37.45-.21.59-.18.26-.3v-.48l-.35-.85.07-.39.13-.63,1-1.6.14-1.35-.7-1.13.35-.59.45-.17.59-.09.18-.26v-.33l-.48-.74.13-.65.85-.47.26-1.15-.29-1.61,1.22,0,0,.11.24.18.33-.18,0-.06h9.49l3,0H640l.05,0v-1.92l-.7-2.23h.09l2.35.24,1.54.15.5.67,5.82-.11,5.8-.11,5.8-.12,5.82-.11,6.06.21,6,.22,6.06.2,6.06.23,6.06.2,6.06.2,6,.23,6.06.2.14-.06.13,0,.13-.06.15,0,.13,0,.15-.06.13,0Z"/>
  <path id="US-TX" class="cls-1" d="M527.94,368.38l.91,1,.73.3.22.4.35.12.44-.1.67-.46,1,.13.82-.17,1.61.24.89.49,0,2.81,0,2.82,0,2.82v23.66L538,405l1,1.72.34.87.11,3,.24.72,1.2,1.11,0,.74,1.26,2.15,0,1,1.21,2.3.68.59.11,1.54.38,1.17-.56.83.24,1.17-.33,1.08-.19,1.42-.8,2.21-.7,1.07-1,2.08.09,1.7-.56,1.87-.07.73.52,1.24.18,3.41-.27.72-1.17,2-.84-.05-1.83,3.29,1,1.86-.08.66-3.65.37-8.28,3.71-3.22,2,.16-.67,3.91-2.59-1.37-.39-2.22.65-.8-.24.95-2.15-.32-1.89-1.57-.06-1,1.52-.71-.07-.91-.65-.7.2.52,3.43,1,1.41.83,1.8-2.26,2.2-2.11,1.82-.22,1.76-2.12,2.3-2,1.29-4.69,3-1.33.65L504.1,470l-2.91,1.06-2.8,1.68-.95.26,1.78-1.42,2.12-1.41-1.82.18-2.8-.65-1.7,0,0,.52-1.3.72-1.35-1.06-.59-.72-.28-.61-.58-.15-.55.3,2,4.35.85.19.94.42-1.18,1-1.28.76-2,.52L488,474.34l-.37,2-.22,2-.57.5-.91.72-.5-.53-.24-.76-.58.68-.85.52-1.41.09-1,.28v.82l.3.81,1.87-.64-.68,2.11L481.06,485l-1.39.5-2.13-.31-.53.2-.47.43,2.49,3.26-1.6,4.91-1,1.78-.7.22-.78.06-2.76-1.58-1.5-1.22,1.33,3.33,3.62,1,.18,1.26,0,1.07-.7,1.26-.67,1.67.5,1.17.58,2.87.48,1.31.54,4,.57,1.72,3.28,6.36,1.11,0,.19.69-.11,1.31-2.38.39-1,.6-.18.5-.15.27-.3,0-1.13-.37-2.55-1.79-3.75-1.11-4.91-.43-3.35-.91-1.8-1.37-1.87-.82-2-.25-1.64-.75L453.31,515l-1.89-.79-2.49-.36-1.61-.92-1.13-2.28v0l-1-3.8-1.26-2.39-2.47-3-.22-.39h0l0-.48.32-1.73-.26-1.24-.78-1-.18-1.07.42-1.13,0-1.36-.37-1.57-1.58-1.71-2.78-1.85-2.35-2.69-1.94-3.55-1.93-2.47-1.91-1.37-1.3-1.67-.7-2-.21-1.15.28-.31-1.17-2.21-2.63-4.09-1.52-3-.39-1.9-1.66-2.26-3-2.64L414,454.9l-.39-1.19h0L409,450.25l-1.34-2.17-1.05-.69-1.21.08-.61-.21,0-.48-.39,0-.74.45-2.44.09-4.17-.26-3-.59-1.86-.93-1.29.13-.75,1.17-1.57.76-2.43.33-2.07,2.17-1.75,4-.75,2.55.22,1.15-.47.84-1.13.51-1.14,1.15-1.17,1.8-1.37.87-1.56-.05-2.89-1.39-4.21-2.71-3.3-1.67-2.39-.63-2.11-1.26-1.83-1.87-1.69-1.24-1.54-.63-1.79-2.08-2.06-3.54-1-2.72v-2.89l-2.7-6.3L346,431.22,344.92,430l-2.07-1.5-3.1-1.76-4.15-3.51-5.21-5.28-3.68-3.18-2.17-1.08-1.87-1.91-1.6-2.74-1.55-1.74-.17-.08-2.11-1h0l-1.78-3.71h63l0-5.76,0-5.78,0-5.8,0-5.82,0-5.84,0-5.86v-5.87l0-5.89,0-5.91,0-5.93,0-6,0-6,0-6v-6l0-6,0-6.06.72,0h52.19v40.86l1,.22,1.28.7,3.17,2.69.93.58,1.67-.34,1.81.34.48-.06.36-1.15.16-.24.26,0,1.58,1,.29.4.93,1.47.24,1.74.5.26,1,.2,2.33.11,3,1.13,1.21.17,2.13-.31,2,1.52.71.22.57-.21,1.13-1.11,2.47.13,2-.2.15,1.28.36.92,1.66,1,.41.46.07,1.56.43.39.67.14.7-.09.82-.48,1.79-1.54.56-.37.33,0,.34.08.28.33.61,1.17,1.55.63.89,1,.56.15.61-.19,1-.61.76,0,.87-.61.36.13.15.42-.26,1.3.14.48.36.58.48.4.46.06.35-.33.65-1.63,0-.6.75-.2.33-.32.43-1.18.76-.32.4.06.37.33.74,1.08,1.77.61.46,0,.46-.23.8-.89.41-.11.33.13.18.13.08,1.06,1.81,1.18,1.34.36,1.3,1.2.37.13.63-1,1.24-.35,1.18-1,3.45-1.27,1.37.4,1.39,0,.37-.55,2.45-.82.5-.31.68.41.25.59.31.24,1.69.3.92,0,1.71-.76.66-1,.39-.06,1.23.46,3.2,1.95,1.63,1.57,1.82.76,1,.67,4,1ZM518.25,460l-.87.19,3.8-3.06.8-1,1,0-1.71,1.72Zm-30.07,19.65-.65.07.8-1.06,1.29-.53,2.84-2,1.15-.15.61-.7.26-.12-.17.88L492,477.21l-3.85,2.43Zm-4.37,4.93-.37.05.85-1.61.15-.65,1.39-2,.72-.29.31.87-1.42,1.42-1.63,2.25Zm-5.92,11.78-.53,1.13.15-1.67,1.4-3.81,2.88-5,1.2-.83-3.32,5.5-1.77,4.71Zm3.19,22.16-.24.89-1.44-4.19L477,505.69l-.09-5.45.37-1.87.61,7.69,2.6,9.73.55,2.72Z"/>
  <path id="US-UT" class="cls-1" d="M239,184.34l0,2.93v20.29h34.94V297H257.59l-5.45,0H208.6l-5.45,0H186.82V279.86l0-3.43V184.34H239Z"/>
  <path id="US-VA" class="cls-1" d="M820.26,245.17l1,.84,2.35,1,1,1-.43,1-.06.74.45.67,3.13,1.33,1.93,1.89,1.18.58.36.16.85.47.39.57-.26,2.54-.82,1.26-1.28,1-1.66,1.71-.41,1.57-.52,3,.7,1,.73.26L831,267l1.09.3,2.45,3.54,4.56,1.39,1.66.87,1.36,1.83,2,1.06,1.58,1.54,0,1-.56,1.18-.22,1.6-.67,1-1.61.11-1-.26-5.25-5.63-.63-.52-1.94-2.95-2.28-1.59-.71,0,3.25,2.92,1.31,2,2.34,2.85,1.66,1.21,1.23,1.89,1.15.89,3.11,1.26-1.08.91,1.73.78.24,1.4-.17,1.62-2.39-.63-.07,1.18.22.71-1.06.57-1.46-.78-3.82-4.28,0,.58.31.66,2.23,2.76,2,1.65,1.69.74,1.29,1.39.47.84.29,1.26-1,.85-1.09.48-1.08-.85-.78-.91L839.83,294l-.5-1.72-1.26.09-5.3-2.18-4.27-.26.41.44.54.3,3.39.54,1.33,1,2.78.89,1.63.24.67,2.72,2.26,1.87.3,1.39,1.54.15,2.7-1.37,1.74.48,2.52.39.58,1.09.43,2.1.88,2.35.58,2.3h-.56l-1.35,0-4.34,0-6.31,0-6.32-.06-6.32-.05-6.32-.06-6.32-.06-6.32-.05-6.32-.06-6.32-.05-6.31-.06-6.32,0L777,306.1l-6.32-.06-6.32-.05-6.32-.06-6.32-.05-.29-.34-2.49-.09-1.81-.07-.82.44-3.65,0h-2.91l-4.93,0-6,0-8.47,0-4,0,1.76-1,2.62-.62,4.65-1.76,1.85-1.79,2.61-1.32,1.1-1.57,1.74-1.5.65-1.71.24-.26,2.87-1.54,3-1.92,6.6-5.32.13.7-.24.76.55.89.47,1.39.64.85.82.69,1.35.61,1.6,1.07,1.26.3.42,0,1.39-1,1.15-.56,1.21-1.13,2.15,1.54h.85l2.11-.67,2-.18.5-.21.74-.63,0-1.28.17-.33.33-.15.39,0,.89.47.87,0,3.71-1.49.28.12.46.68,1.63-.87,1-.82.43-1.22.8-1.2L776,283l-.52-.7.69-1.63,1-1.62,3.78-4.89,1.2-3,1.58-1.91.52-1.52,1.18-1.5.82-3.12.5-.63.72-.11.74.39.54.58.35.92,1.91.82,1.59.09,1.12-.59.64-1.1.87-2.05.84-1.23.54-1.53.55-1.06L798,257l2.15,0,1.12-.94.85-1.08.52-.35.61,0,1.94-1.72,2.56-3.61.56-2.28.66-1.65.26-1.69.5-.92,2.26,1.83,1.3,1.06,3,2.41,2,1.59.78-1.83,1.26-2.75Zm43.16,29.13.46-.05h0L862,277.6l-.8.35Zm-7.1,1.86.68-1,2.64-.36,1.63-.22-3.86,8.65.17,1.6-.78.52-1.17.4-1.18.95-.78,1-.72,2.81-1.41,3.15-.87-1.31-.23-1.13.39-2.95,1.52-4.83,1.67-3L855.3,279l1-2.87Z"/>
  <path id="US-VT" class="cls-1" d="M912,167.18l-1.7-.06-1.73-.07-1.7-.06-1.72-.07-1.73,0-1.7-.08-1.73,0-1.7-.08-.46-1.43.22-1.22,0-1.68,0-2.17,0-2.41.07-3.28,0-2.19.06-2,0-2.71-1-1.52-.42-.26-.34.17-.72,1-.24,0-.19-.26,0-.9.65-3.23,0-1-.13-1.72-.74-3.93,0-.89.3-1.35.5-1.37.85-1.39.18-.58-.05-2.41.26-2.24-1.1-3.35.41-4.36-.29-2.07.35-1.93-.11-1.63,3,0h7.26l7.25,0h14.53l-.28.48.41,1.94-1.93,3.36,0,1.07.87,3-.06.68-.28.34-.38,1.26-.51.78-.77.77-2.49,1.86-.74.46-2.33.61-.52.71-.54,4.46-.76,2.5-.17,1.15-1,2-.86,2.24L915,143.7l-.71,2.23-.44.85-.39,1.39-.39,4.7-.54,2.58-.61,4.43-.41,1.11-.39.59-.53,1.91-.06.71.24.63,1,1.52Z"/>
  <path id="US-WA" class="cls-1" d="M137,87.59H100l-.52.47-2.22.9-4.39.28L84,91.65l-3.87,1.89-3.41.93-6.36.89-5.74,1.26-2.43-.11-1-1.08-2.78-.61-4.54-.15L50,95.39l-3.54,2.17-1.13.22h0l-.92.08L38.17,97,36.62,97,35.28,95.8l-.35-1.89L33.24,88.2l-1.72-3.42-1.74-1.13-1.37-.47-1.74.63-.54-.35-.84-.09-1.85-1.26-1.05-1.26-3.25.09-.66-.81-3.62.81-1.11-.83-2,.53.48-2.35-.09-3,.09-2.89.48,2.11L14,76.79l.6-2.54.4-3.2-1.2-1.25-2-.9-.71-3,4.71-2.55-2.5-.54-1-1.15L11.1,61.5l-.09.89-.39,1.17L10.19,62l-.13-1.81-.5-3.12-1.92-5L6.47,45.53,5,42.29,2.19,39.17l-.74-1.81L.78,32.74l.37-3.5L.63,26.78,2,26.93l3.56,1.94L10,30.39,11.3,31.5l2.15.82L25.33,33.6l.78-.13,1.54-.8.65.09L30,34.56l.87.22L32,34.69l.83-.35L34.3,33.1l.19.46,0,1.15L35,36.34l1,2.11.39,1.32L34.3,43.45l-.41.08,0-1.24-.28-.24-4,6.22-1.41,2.95L28,52.55l.06.78.55.19,1.28-.3L31.78,52l.09-.26-1.76.42-.85,0,.11-1.39.21-.67,1.14-2,1.21-1.24,1.72-1.32,1-1.09.69-1.6,1.91-1.91.35-.53-.08-1.58.13-.29.93.2L39,41.42l-.22,1.2L37.1,44.08l-.2.52.29,2-.26.19-.63-.24-.2.13,1.55,2.17.51,1.68.07,1.5-.43,2.88-.46.48-.78-.17-1-.89-.22.3-.81,2.22-.28-.2L33.69,54l-.28-.21L31.82,55l-.63,1.15L30.63,58l-.7.85,2,.19,1.78-.37,1.43.87.48,0,1.31-.86.41-.57,1.08-2.78.53-.5.82,0,.78-.42,1.15-1.52,0-.62-.42-3.42.13-2-.23-.61-.51-.65.07-.63.41-1,0-.92-.35-.84.15-.94,1.09-2,.21-.89,1.33-2-.33-.82-1-1-.62-.87-.63-1.37-.48-.46-.15.2.67,2.24-.15.15-1.72-1.2-.41-.76-.2-1,.15-.78.92-.76,1.11-.28L40.71,29l-1.39-2.09-.92-1-.73-.47-1-.13L36.28,25l-.11-.5.21-.65.51-.2,1.49.26.79-.47-.07-.83-.24-.46,0-3-.58-2.45L38,16.25l-.32,0-.33.33-.93.09-.57-.8-.63-1.55L34.1,10.58H134.29l0,4.23,0,4.22v4.23l0,4.2,0,4.19,0,4.17,0,4.17,0,4.15,0,4.13V52.4l0,4.12,0,4.09,0,4.1,0,4.08,0,4,0,4.06-.13.24-.12.6.5,1.68L136,81.87l.37,1.72-.44,1,.31,1.71.73,1.31ZM34.34,19.05l.24.57-.71.56-.5.09-.79-.89-.35-.11.27,1.37-.09.47-1.63-.86-.3-.66.47-.71,1-.74.35-.09,2,1Zm-4,4.52.46.85-1.87-.55-.8-.5-.24-.48-.28-1.6.13-.52.84-.18,1.57,2,.19,1Zm3.35,1.82-.28.26-.92-.36-.56-.59L31.71,24l.35-1.39.46-.35.3.07L33,23.53l.83,1.3ZM38,32.58,38.84,36l.37-1.43L41.58,37v1.21l-.29.41-.5.14-.47-.35-.42-.85-.54-.44-1.13-.3-.59-1-.21-.67,0-1.91-.28-.59-.61-.13-.58-.47L35,30.78l-.13-.35.43-1.1,1-1.83.71-.87.44.09.54.56.65,1-.11.7-2.62,1.39-.09.32,1.26.39.46.35L38,32.58ZM39.3,47.14l-.09.5-1-.59-.32-.54,0-1.22.24-.8.19-.16.57.35.17.2.16,2.26Zm1.8,5.13-.07.6-.67.46L40,53.22l0-.69-.19-.11-.72.84.06-1.63.35-1.73.31,0L40.27,51l.83,1.27Zm-8,4.9-.17.5-.24,0-.54-1-.07-.72.46-.52.63,1.5-.07.28Z"/>
  <path id="US-WI" class="cls-1" d="M598.73,61.72l-.57.41-.23-.18.13-.78.3-.46.44-.13.23.18v.5l-.3.46Zm-4.91,2.53-.26.18-.67-.43-.09-.35.19-.35.31.07.45.52.07.36Zm5.23,8.48-.1.21.35.92.89-.24.39.56.54.24,1,.44.48,1.06.48,1.06.49,1,.48,1.06,2.18.61,2.19.61,2.19.61,2.18.61,2.19.62,2.19.61,2.18.61,2.19.61,1.22.7,1.23.71,1.22.7,1.22.71,1.93.13,1.7.42,2.39,0,2.41.54,3.54,1.17.84,1,.14.66L639,92.3l3.38,1.39,1.44,1,.54.79-.09.73.33,1.52-.35.81V100l-.76,1.5-.26.81,0,.69.17.44.4.17,1.28-.09,1.26-.46.56.27.11.24-.09.41-1,2.54,0,1,.43,1,.7,1,.84.34,0,.63-.33,1.24-1,1L644,113.94l-.41.84-.05.68-1.65,2.86-.82,1.74-.54,1.81.17,1.15.87.47.71-.19.53-.83.82-.74,1.11-.67.82-1,1.13-2.41,1.26-1.39.66-.08.19,0,1.31-.63,1.06.2.63,1,.65.65.15.61-.34,1.35-.59,1.43-.87,1.5-.8,2.24-.7,3-.15,2.26.41,1.52-.39,1.36L648,133.86l-1,1.6-.72,2-.41,1.67-.09,1.35.11,1,.44,1.37,0,.68-1.29,3-.47,1.46-.07,1.15-.31,1.13-1,2.3-.31,1.28-.06,1.16L643,157l-.13.65.05.48.24.34V159l-.26.87.1.68.44.49.3.92.13,1.37.33,1.13.56.91.09,1.32-.35,1.72-.19,3.24v1.08l-2.22,0-7.86-.06-7.86,0-7.85-.06-7.86-.05-7.86-.06-8-.05-.11-.19-.54-2.11-1.76-1.58-3-1-1.91-1.61-.84-2.2-.53-2.49-.22-2.76.24-2.31.7-1.87-.19-1.26-1.07-.67-.7-.87-.34-1.08-.13-1.48-.57-7.08-.72-3.35-1.1-1.32-2.3-1.54-3.52-1.74-2.16-1.63-1.25-2.3-2.48-2.7-1.63-1.11-1.59-.41-1.26-.87-1-1.34-1.3-.83-1.66-.35-1.86-1.1-2.2-2-.06-.15-.46-1.42.26-.8.37-2.74,0-.87-.48-2.51.59-1-.13-3.09.21-1,1.18-2.54.06-1.3-.43-1.5-.87-1.22-2.35-1.28-.07-1.6.38-1.18,1.54-2.22.85-2,.78-.85,4.71-3,1-.21.72-.85.58-.37V71.1l1.18-.26.52-.91,1.21-1.42.31,0h0l.59.65,1.49,1,1.16.11,1.49-.21,5.87-1.63,2.48-1.13L585,65.37l.24-.05,1,.35.32.17,3.17-2.19,1-.28.82.06,1,.85.24.52-.34,1-.9,1.48-.45,1.25,0,1-.39,1.1-1,1.48.35.41,2.67-1.08.39-.4,0-.25-.17-.29.32-.13,2.09,1.46,1.41.82,1.17.39,1-.32Zm-2.41-8.28-.58.15-1.26-.23,0-.37,1.3-.51.57-.15.13.22-.18.89Zm-2.88,3.45-1,.35-.4-.08.16-.48.52-.57,2.32-1.43.41,0,.13.33-1.14.71-.42.37-.06.39-.52.39Zm67.14,35.87-.52.24-1-.09-.36-.56.5-1.42.21.25.83,0,.3.15.09.35-.09,1.06Zm-2.26,2.74-.32.32-.53-.21-.21.47.11,1.13-.18.52-.48-.1,0,.21.42.5,0,.55-.33.6-.32.27-.31,0-.48.68-.65,1.41-.23.82.21.22-.15.46-1.61,2.13-.61.21-.69-.3-.48-.63-.28-.94-.07-.75.11-.51,1.41-1.89.63-1.25L654,109l.65-.89,1-.38.78-.88.59-1.35.69-.59.78.17.33.51-.11.91Z"/>
  <path id="US-WV" class="cls-1" d="M789.72,236.69l-.05,2.89,0,2.89-.06,2.87,0,2.87,2.22-1.67,1.17-.59,3.8-3.69h.5l1.31.51,2.72-2.63.34-.94.31-.32.36,0,.2.24-.13.56.2.26,1.13.63,1.56.35.22,0,1.39,0,.61-.52.32-1,.63-.59,1.41-.26,2.52-1,1.44.17,1.24,1,1.25.5,1.26,0,.5.24-.3.53.33.63,1,.71.33.65-.31.59.11.44.5.3.31.65.1,1,.22.18-1.13,2.69-.78,1.84-2-1.6-3-2.41-1.3-1.05-2.26-1.84-.5.93-.26,1.68-.66,1.65-.54,2.28L805.34,253l-1.94,1.72-.6,0-.52.35-.85,1.08-1.09.93-2.15,0-.87.67-.56,1.07-.54,1.54-.83,1.2-.89,2.06-.65,1.09-1.11.6-1.61-.1-1.89-.83-.35-.93-.54-.57-.74-.39-.72.09-.5.63-.82,3.12-1.19,1.5-.51,1.53-1.58,1.91-1.2,3L777.32,279l-1,1.61-.68,1.61.52.71.16.54-.79,1.2-.43,1.22-1,.82-1.61.87-.49-.69-.27-.11-3.71,1.5-.87,0-.89-.48-.39,0-.33.17-.17.31,0,1.3-.74.63-.5.2-2,.19-2.1.67h-.85l-2.15-1.54-1.2,1.13-1.17.54-1.37,1-.43,0-1.26-.3L750,291.13l-1.34-.61-.81-.67-.65-.87-.46-1.39-.56-.87.24-.76-.13-.71-2.41-.68L740.82,282l-2-3.09-.63-1.45-.73-1-.18-1-1.85-2.58-.5-1.11,0-.7.59-1.34.13-.65-.2-3.3-.41-.61,2,.74,1.93-.42,1.2-1,.46-1.59.69-.95.85-.26.41-.7-.15-1.73-.26-1.18.69-1.71,1.59-2.63,1.24-1.07.89.48.56.81.18,1.17.19.15.26,0,.67-.89.61-.35.24.09.26,0,0-.57-.46-1.59,0-1,.55-.28.6-1.07.63-1.85.76-1,.89,0,.94-.76,1-1.48.93-.42.81.63,1,0,1.22-.53,2.15-1.56,3.08-2.59,1.55-2.1,0-1.61,1.19-3.93,2.37-6.26,1.15-4.08,0-1.85-.33-1.52-.63-1.17.39-.93,2-1,0,2.64v10.54l0,2.61v5.25h15.9Z"/>
  <path id="US-WY" class="cls-1" d="M361.45,160.77l0,5.93,0,5.89,0,5.89,0,5.86V196l0,5.79,0,5.78H239V132.31l0-3.78v-3.8l0-3.08v-9.23H361.3l0,6.14,0,6.11,0,6.08,0,6,0,6v6l0,6Z"/>
  <circle id="Seattle" class="cls-2" cx="40.54" cy="47.08" r="18.26"/>
  <circle id="Austin" class="cls-2" cx="468.09" cy="444.61" r="18.27"/>
  <circle id="Sutherland-Springs" class="cls-2" cx="456.8" cy="481.01" r="18.27"/>
  <circle id="New-Orleans" class="cls-2" cx="595.68" cy="446.37" r="18.27"/>
  <circle id="Fort-Hood" class="cls-2" cx="449.82" cy="412.32" r="18.27"/>
  <circle id="Killeen" class="cls-2" cx="487.53" cy="412.32" r="18.27"/>
  <circle id="Edmond" class="cls-2" cx="479.02" cy="323.59" r="18.27"/>
  <circle id="Littleton" class="cls-2" cx="317.87" cy="244.12" r="18.27"/>
  <circle id="Aurora" class="cls-2" cx="355.6" cy="244.12" r="18.27"/>
  <circle id="Orlando" class="cls-2" cx="752.59" cy="473.7" r="18.27"/>
  <circle id="Miami" class="cls-2" cx="772.83" cy="524.28" r="18.27"/>
  <circle id="Jacksonville" class="cls-2" cx="749.97" cy="435.84" r="18.27"/>
  <circle id="Atlanta" class="cls-2" cx="708.84" cy="363.03" r="18.27"/>
  <circle id="Charleston" class="cls-2" cx="783.69" cy="379.43" r="18.27"/>
  <circle id="Geneva" class="cls-2" cx="665.35" cy="410.09" r="18.27"/>
  <circle id="Louisville" class="cls-2" cx="681" cy="277.95" r="18.27"/>
  <circle id="Omaha" class="cls-2" cx="494.61" cy="191.59" r="18.27"/>
  <circle id="Blacksburg" class="cls-2" cx="776.95" cy="285.62" r="18.27"/>
  <circle id="Red-Lake" class="cls-2" cx="544.59" cy="33.28" r="18.27"/>
  <circle id="Washington-DC" class="cls-2" cx="834.14" cy="247.63" r="18.27"/>
  <circle id="Newtown" class="cls-2" cx="890.11" cy="196.07" r="18.27"/>
  <circle id="Manchester" class="cls-2" cx="925.14" cy="181.87" r="18.27"/>
  <circle id="Binghamton" class="cls-2" cx="856.01" cy="172.74" r="18.27"/>
  <circle id="San-Ysidro" class="cls-2" cx="137" cy="393.24" r="18.27"/>
  <circle id="Covina" class="cls-2" cx="132.61" cy="355.56" r="18.26"/>
  <circle id="San-Bernardino" class="cls-2" cx="94.58" cy="357.39" r="18.26"/>
  <circle id="San-Francisco" class="cls-2" cx="41.22" cy="280.25" r="18.26"/>
  <circle id="Roseburg" class="cls-2" cx="29.52" cy="150.86" r="18.26"/>
  <circle id="Las-Vegas" data-name="las vegas" class="cls-2" cx="165.15" cy="309.18" r="18.26"/>
  <circle id="Phoenix" class="cls-2" cx="232.59" cy="375.39" r="18.26"/>
</svg>
