<svg id="Layer_1" data-name="Layer 1" xmlns="http://www.w3.org/2000/svg" viewBox="0 0 518.61 575.54">
  <title>dice</title>
  <g>
    <path d="M283,13.06c-1.44.53-230.85,129.27-231.58,130-.27.27-.18.63.23,1s35,17.07,77,37.19,100,48,129,61.92c41.43,19.93,53.24,25.41,55,25.59,1.93.24,2.7.06,5.09-1.15s217-135.47,225.49-141.06c2.66-1.75,3.2-2.46,2.67-3.32-.27-.45-18.32-8.25-107.57-46.56-7.14-3.08-42.83-18.36-79.24-34S291.68,13.86,290.24,13.4C287.32,12.45,285,12.35,283,13.06Zm4.31,25.78c17.44,2.35,29.51,10.67,29.47,20.29,0,8.86-10.49,17.14-25.74,20.37-22.68,4.78-46.94-1.51-53.33-13.86A12.82,12.82,0,0,1,237.53,55c2.85-5.7,9.84-10.67,19.38-13.74A71.9,71.9,0,0,1,287.27,38.84Zm85.26,36.45c13.39,2.39,22.77,7.86,26,15.25a9.31,9.31,0,0,1,.75,5.39c-.43,6.12-4.58,11-12.83,15.11a55.57,55.57,0,0,1-14.67,4.85c-7.25,1.46-20.87,1.37-27.7-.1C328.43,112.37,319.19,105,319.22,96c0-10,13.6-19,32.31-21.33C355.94,74.11,367.72,74.47,372.53,75.29Zm82.38,36.8c10.11,1.25,20.12,5.51,24.74,10.57,2.55,2.79,3.27,4,3.93,6.89,2.35,10.35-9,20-27.83,23.64a90.2,90.2,0,0,1-21.81.6c-10.42-1.34-19.67-5-24.87-9.8-3.86-3.61-5-5.82-5.27-9.87a9.81,9.81,0,0,1,1.05-6c4-8.84,19.35-15.85,36.48-16.69A94.1,94.1,0,0,1,454.91,112.09Zm-292.49.23c16.49,2.89,26.94,10.66,26.91,19.92,0,10-12.61,18.66-30.83,21.3-6.21.88-19.43.56-24.42-.58-12.8-2.93-21.33-8.31-24.22-15.33-1.07-2.52-.83-6.84.48-9.58,3.58-7.63,14.84-13.75,29.33-15.94A87.06,87.06,0,0,1,162.42,112.32Zm79.94,38.77c17.8,2.4,29.64,10.54,29.65,20.38-.05,15.16-29.27,25.8-55.78,20.4a51.47,51.47,0,0,1-13.29-4.77c-13.42-7-14.95-18.93-3.5-27.35C209.44,152.37,226.5,149,242.36,151.09Zm81.79,38.28c19.2,1.78,32.61,10.24,32.66,20.49.06,9.53-10.85,17.63-28.17,20.94-6,1.19-18.58,1.37-24.19.37-13.75-2.44-23-7.59-26.53-14.76a8.77,8.77,0,0,1-1.19-5.94c.24-4,1.64-6.69,5.34-10.18C290.6,192.31,307.88,187.83,324.15,189.37Z" transform="translate(-39.86 -12.59)"/>
    <path d="M553.86,142c-8.65,5.41-203.55,127.65-214.5,134.45-6.81,4.29-13.34,8.63-14.52,9.7l-2.16,1.93v3.33c0,1.84.36,37.27.84,78.69s1.17,103.73,1.54,138.49c.87,84,.76,79.14,2.19,79.14.63,0,224.94-148,228-150.41a11.42,11.42,0,0,0,2.35-2.55c.45-.9.6-29.63.79-147.93.23-130,.16-146.8-.43-146.9A14.25,14.25,0,0,0,553.86,142Zm-15.61,53.54c7,3.4,10.35,11.05,9.81,22.47-1.07,22.12-18.1,45.53-35.78,49.2a15.9,15.9,0,0,1-10.88-1.3c-4.4-2.13-7.62-6.77-9.13-13-.79-3.38-.63-12.42.29-16.59,4.52-20.18,18.74-37.75,33.87-41.79A15.9,15.9,0,0,1,538.25,195.57Zm-67.12,135.6c4.36,2.26,7.8,7.13,9.22,13a43.66,43.66,0,0,1,.56,8.1,50.8,50.8,0,0,1-3.8,18.55c-5.44,13.61-15.2,25-25.47,29.86-4.72,2.23-7.69,2.89-11.74,2.61-7.6-.57-13-6-14.92-14.94-1-4.63-.54-13.08,1-18.79,4.79-18.1,18-34.33,31.62-38.78C462.06,329.29,467.81,329.45,471.13,331.17Zm-76.39,139.7c5,1.5,8.93,5.56,10.89,11.19,1.38,4,1.7,13.5.65,18.8-4,19.77-18.48,38.11-33.42,42.33-3.92,1.11-9.63.73-12.63-.81-3.86-2-6.5-5.38-8.37-10.69-1.29-3.65-1.58-12.86-.57-18.12A69,69,0,0,1,361.9,489a72.36,72.36,0,0,1,12.54-12.82C381.52,471.09,389,469.14,394.74,470.87Z" transform="translate(-39.86 -12.59)"/>
    <path d="M39.86,161c0,.59.71,25.91,1.6,56.35,3.16,108.73,4,138.64,5.16,180.1,1.6,56.61,1.47,53.87,3,55.31,1.3,1.31,255.33,135.35,256.49,135.35a1.12,1.12,0,0,0,1-.63c.27-.67-2.67-276-3.11-291.15l-.24-8.72-1.44-1.49C301.2,285,285.49,277.28,230,250.6L100.15,188.31c-32.37-15.53-59.21-28.26-59.57-28.26S39.86,160.45,39.86,161Zm36.48,46.13c15.36,3.7,30.45,21.69,34.7,41.49,1.19,5.62,1.3,13.4.21,17.94-1.51,6.2-5.26,11.22-10.12,13.59-3.25,1.56-8.82,1.9-13.09.76-15.32-4.05-30.05-22.05-34.34-42-1-4.77-1-13.77,0-17.63,1.82-6.74,6.47-12.25,11.74-13.9A20.23,20.23,0,0,1,76.34,207.16Zm162.53,80.43c6.92,1.24,13.47,5.08,19.92,11.67a63.42,63.42,0,0,1,17,32.52c.79,4.28.63,12.24-.28,15.7-3,11.23-11.35,16.82-21.86,14.58-13.66-2.93-27.95-17.95-33.78-35.55-2.76-8.29-3.53-18.09-1.89-24.16,2.09-7.72,6.7-12.92,12.95-14.56A14.67,14.67,0,0,1,238.87,287.59Zm-77,53.59c5.52,2,10,4.94,15.43,10.4,15.32,15.34,22,38.93,15.14,53.34-8.15,17.05-31.65,11.53-46.5-11-12.88-19.51-13.51-43.17-1.34-51.35,3.2-2.19,5.18-2.73,9.54-2.71A17.75,17.75,0,0,1,161.84,341.18ZM82.79,392a37.7,37.7,0,0,1,5.61,2.49c12.93,7,24,22.7,27.65,39.26,1,4.64,1,14-.06,17.9-4.15,15-18.23,18.95-32.86,9.33-7.67-5.07-14.61-13.23-19.3-22.78-4.37-8.92-6-15.49-6-24.26,0-8,2-13.79,6.22-18.09C68.72,391.17,75.29,389.84,82.79,392Zm163.78,84.48c14.9,5.58,28.42,23.35,31.91,41.88.84,4.64.81,12.82-.06,16.5-1.55,6.52-5,11.18-10.08,13.64-2.79,1.38-3.33,1.47-7.51,1.46-5.35-.07-8.58-1-13.7-4-12.65-7.51-22.81-22.52-26.21-38.59-1.06-5.08-1.08-13.53,0-17.49,2-7.36,5.85-11.94,11.75-14C236,474.67,242.44,475,246.57,476.51Z" transform="translate(-39.86 -12.59)"/>
  </g>
</svg>
