<svg id="ARTBOARD1" xmlns="http://www.w3.org/2000/svg" viewBox="0 0 140 140">
  <defs>
    <style>
      .cls-1 {
        fill: #007cff;
      }

      .cls-2 {
        fill: #fff;
      }

      .cls-3 {
        fill: #ccc;
      }
    </style>
  </defs>
  <title>wood_logo_foot</title>
  <g id="symbol">
    <rect class="cls-1" width="140" height="140" rx="18.59"/>
    <path class="cls-2" d="M69.83,81.53l11,41.48,24.84,0s11.07-2.34,2.38-13.54,18-75,18-75,6.18-6.55-3.49-11.87-9.26,4.94-9.26,4.94A23.61,23.61,0,0,0,99,15.94a21.83,21.83,0,0,0-17.75,2.67,25.11,25.11,0,0,0-10.8,15.46A27,27,0,0,0,73,53.27,23.61,23.61,0,0,0,87.26,65,21.83,21.83,0,0,0,105,62.28s-6.78,39.63-19.48,41l-11.25-35H65.21L54,103.25c-12.7-1.34-19.48-41-19.48-41A21.83,21.83,0,0,0,52.23,65a23.61,23.61,0,0,0,14.3-11.68A27,27,0,0,0,69,34.07,25.07,25.07,0,0,0,58.2,18.61a21.82,21.82,0,0,0-17.75-2.67,23.63,23.63,0,0,0-14.3,11.68s.41-10.26-9.26-4.94S13.4,34.55,13.4,34.55s26.71,63.76,18,75,2.38,13.54,2.38,13.54l24.84,0,11-41.48Z"/>
    <ellipse class="cls-3" cx="46.77" cy="39.82" rx="12.71" ry="13.75"/>
    <ellipse class="cls-3" cx="93.39" cy="39.82" rx="12.71" ry="13.75"/>
  </g>
</svg>
